<svg height='100px' width='100px'  fill="#ffffff" xmlns="http://www.w3.org/2000/svg" viewBox="0 0 64 64" x="0px" y="0px"><title>Earth</title><g><path d="M52.44,30.54h0A20.49,20.49,0,0,0,32,11.5a20.75,20.75,0,0,0-4.74.54,20.36,20.36,0,0,0-11.62,7.59h0A20.5,20.5,0,1,0,52.5,32C52.5,31.5,52.48,31,52.44,30.54ZM33.83,13.59l.59.08c.4.05.8.1,1.19.18l.69.16c.35.08.71.17,1.05.27l.71.24c.33.11.65.23,1,.36l.7.31c.31.14.62.29.92.45l.67.38q.44.26.87.54l.64.44c.28.2.55.42.82.64l.59.5.23.22c-2.19,1.13-4.6,1.81-5.61.12S35.56,16,33.07,16C28,16,21.62,18.65,20.61,19.08l-.14.07a4.06,4.06,0,0,1-2.09.34l.08-.09q.57-.61,1.18-1.17l.22-.2c.42-.37.86-.72,1.31-1l.18-.13c.48-.34,1-.66,1.48-.95h0c.51-.29,1-.55,1.57-.79l.18-.08c.51-.22,1-.42,1.57-.59l.27-.09q.79-.25,1.6-.42l.28-.06c.55-.11,1.11-.2,1.68-.26l.22,0c.6-.06,1.2-.09,1.81-.09S33.22,13.53,33.83,13.59ZM13.5,32a18.34,18.34,0,0,1,3.4-10.66,7,7,0,0,0,4.56-.44c3.48-1.48,13.62-4.83,15.69-1.38a4,4,0,0,0,3.61,2,11.11,11.11,0,0,0,5.18-1.67A18.44,18.44,0,0,1,50.36,30c-3.12,1.31-4.53,3.77-6.12,6.6-.35.62-.71,1.26-1.1,1.91-2.48,4.13-7.39,5.61-15,4.52a8.68,8.68,0,0,0-7.92,3.26A18.35,18.35,0,0,1,13.5,32ZM30.57,50.44l-.47-.05c-.31,0-.63-.06-.94-.11l-.55-.1L27.77,50l-.57-.15-.79-.23-.57-.2-.75-.28-.56-.24-.73-.34-.54-.28-.71-.41L22,47.58l-.19-.13a6.63,6.63,0,0,1,6-2.46c8.38,1.2,14.1-.65,17-5.48.4-.68.77-1.33,1.13-2,1.38-2.46,2.44-4.35,4.51-5.46,0,.33,0,.65,0,1s0,.58,0,.87-.1.65-.15,1-.08.58-.14.86-.16.62-.24.92-.13.57-.22.85-.21.57-.32.86-.19.56-.31.83-.25.53-.38.79-.25.55-.4.82-.3.5-.45.74-.31.53-.48.78-.34.46-.51.69-.36.5-.55.74-.38.41-.56.62-.41.47-.63.69-.41.37-.62.56-.45.43-.7.63-.45.34-.68.51-.49.38-.75.56-.5.3-.74.45-.51.33-.78.47-.54.26-.81.39-.53.27-.8.38-.61.22-.91.34-.52.2-.78.29-.69.18-1,.27-.48.14-.73.19-.81.13-1.21.19c-.21,0-.41.07-.62.09a18.63,18.63,0,0,1-1.89.1C31.52,50.5,31,50.48,30.57,50.44ZM11,15v1a1,1,0,0,1-2,0V15H8a1,1,0,0,1,0-2H9V12a1,1,0,0,1,2,0v1h1a1,1,0,0,1,0,2ZM56,51a1,1,0,0,1-1,1H54v1a1,1,0,0,1-2,0V52H51a1,1,0,0,1,0-2h1V49a1,1,0,0,1,2,0v1h1A1,1,0,0,1,56,51ZM38,9.5A1.5,1.5,0,1,1,39.5,11,1.5,1.5,0,0,1,38,9.5Zm-27,40A1.5,1.5,0,1,1,9.5,48,1.5,1.5,0,0,1,11,49.5Zm37-36A1.5,1.5,0,1,1,49.5,15,1.5,1.5,0,0,1,48,13.5Z"></path></g></svg>