<svg height='100px' width='100px'  fill="#ffffff" xmlns="http://www.w3.org/2000/svg" xmlns:xlink="http://www.w3.org/1999/xlink" version="1.1" x="0px" y="0px" viewBox="0 0 100 100" style="enable-background:new 0 0 100 100;" xml:space="preserve"><g><g><path d="M63.4,76.2c-0.6,0-1-0.4-1.1-1c-0.1-0.6,0.3-1.2,0.9-1.3c8.5-1.5,16.2-5.5,22.4-11.7    c0.5-0.5,1.2-0.5,1.6,0c0.5,0.5,0.5,1.2,0,1.6c-6.5,6.5-14.6,10.7-23.6,12.3C63.6,76.2,63.5,76.2,63.4,76.2z"></path></g><g><path d="M86.4,64.2c-0.3,0-0.6-0.1-0.8-0.3l-4.3-4.3c-0.5-0.5-0.5-1.2,0-1.6c0.5-0.5,1.2-0.5,1.6,0l4.3,4.3    c0.5,0.5,0.5,1.2,0,1.6C87,64.1,86.7,64.2,86.4,64.2z"></path></g><g><path d="M29.8,7.5c-0.3,0-0.6-0.1-0.8-0.3l-4.4-4.4c-0.5-0.5-0.5-1.2,0-1.6s1.2-0.5,1.6,0l4.4,4.4    c0.5,0.5,0.5,1.2,0,1.6C30.4,7.4,30.1,7.5,29.8,7.5z"></path></g><g><path d="M56.1,86.3c-0.6,0-1.2-0.5-1.2-1.2v-8.3c-11.4-0.2-22.2-4.8-30.3-13c-8.4-8.4-13-19.5-13-31.3    c0-11.8,4.6-23,13-31.3c0.5-0.5,1.2-0.5,1.6,0s0.5,1.2,0,1.6c-16.4,16.4-16.4,43,0,59.4c7.9,7.9,18.4,12.3,29.6,12.3    c0.1,0,0.2,0,0.3,0l1.2,0v10.6C57.3,85.7,56.7,86.3,56.1,86.3z"></path></g><g><path d="M81.4,100H30.6v-1.6c0-4.4,3.6-8,8-8H40c0.6-3.6,3.7-6.4,7.5-6.4h17.3c3.8,0,6.9,2.8,7.5,6.4h1.1    c4.4,0,8,3.6,8,8V100z M32.9,97.7H79c-0.4-2.8-2.8-5-5.7-5H70v-1.2c0-2.9-2.4-5.3-5.3-5.3H47.5c-2.9,0-5.3,2.4-5.3,5.3v1.2h-3.6    C35.7,92.7,33.3,94.9,32.9,97.7z"></path></g><g><path d="M55.9,64.9c-17.9,0-32.5-14.5-32.5-32.4C23.5,14.7,38,0.1,55.9,0.1c17.9,0,32.5,14.5,32.5,32.4    C88.4,50.4,73.8,64.9,55.9,64.9z M55.9,2.5c-16.6,0-30.1,13.5-30.1,30.1c0,16.6,13.5,30.1,30.1,30.1c16.6,0,30.1-13.5,30.1-30.1    C86.1,15.9,72.5,2.5,55.9,2.5z"></path></g><g><path d="M79.1,54.7c-0.3,0-0.5-0.1-0.7-0.3c-0.5-0.4-1-0.9-1.5-1.3c-4.4-4.2-7.1-10-7.4-16.1    c-0.1-1.1,0-2.1,0-3.1c0-1.6,0-3.2-0.2-4.7c-0.4-2.7-1.8-4.7-3.6-5.4c-0.7-0.3-1.5-0.4-2.3-0.5c-1-0.1-1.9-0.3-2.9-0.7    c-2.3-1-4-3.3-4.7-6.3c-0.4-1.7-0.5-3.4-0.5-5c0-0.7-0.1-1.5-0.1-2.2c-0.2-2.6-0.8-5.1-1.8-7.5C53.1,1,53.4,0.3,54,0.1    c0.6-0.2,1.3,0.1,1.5,0.7c1.1,2.7,1.7,5.4,1.9,8.2c0.1,0.8,0.1,1.5,0.1,2.3c0.1,1.6,0.1,3.1,0.5,4.6c0.5,2.3,1.8,4,3.3,4.7    c0.7,0.3,1.5,0.4,2.3,0.5c0.9,0.1,1.9,0.3,2.8,0.7c2.6,1,4.4,3.7,5,7.2c0.3,1.7,0.3,3.4,0.2,5.1c0,1,0,2,0,3    c0.3,5.4,2.7,10.7,6.7,14.5c0.4,0.4,0.9,0.8,1.3,1.2c0.5,0.4,0.6,1.1,0.2,1.6C79.8,54.5,79.4,54.7,79.1,54.7z"></path></g><g><path d="M57.3,64.9c-0.6,0-1-0.4-1.1-1c-0.9-5.3-3.5-10-7.3-13.5c-0.2-0.2-0.5-0.4-0.7-0.6    c-1.8-1.6-3.8-3.4-4.1-6.1c-0.1-1.4,0.3-2.7,0.7-4c0.2-0.6,0.4-1.2,0.5-1.8c0.5-2.7-0.8-5.9-3.3-7.9c-2.2-1.8-5.2-2.8-8.9-3.1    c-2.5-0.2-5.1,0-7.6,0.2L25.3,26l0-1.2c2.6-0.2,5.3-0.4,8-0.2c4.2,0.3,7.6,1.5,10.2,3.6c3.2,2.6,4.8,6.6,4.1,10.2    c-0.1,0.7-0.4,1.4-0.6,2.1c-0.4,1.1-0.7,2.1-0.6,3c0.2,1.8,1.8,3.2,3.3,4.6c0.2,0.2,0.5,0.4,0.7,0.7c4.2,3.8,7,9.1,8,14.8    c0.1,0.6-0.3,1.2-0.9,1.3C57.5,64.9,57.4,64.9,57.3,64.9z"></path></g></g></svg>