<svg height='100px' width='100px'  fill="#ffffff" xmlns="http://www.w3.org/2000/svg" xmlns:xlink="http://www.w3.org/1999/xlink" xml:space="preserve" version="1.1" style="shape-rendering:geometricPrecision;text-rendering:geometricPrecision;image-rendering:optimizeQuality;" viewBox="0 0 80 80" x="0px" y="0px" fill-rule="evenodd" clip-rule="evenodd"><defs><style type="text/css">
   
    .fil0 {fill:#ffffff}
   
  </style></defs><g><path class="fil0" d="M7 40c0,-18.226 14.775,-33 33,-33 18.226,0 33,14.774 33,33 0,18.225 -14.774,33 -33,33 -18.225,0 -33,-14.775 -33,-33zm26.332 3l19.772 -16.084c1.978,-1.608 4.912,-1.307 6.521,0.671l0.001 0.001c1.609,1.979 1.307,4.913 -0.671,6.522l-23.325 18.974c-1.596,1.298 -3.814,1.352 -5.456,0.286 -0.45,-0.268 -0.861,-0.618 -1.21,-1.047l-8.59 -10.559c-1.609,-1.979 -1.307,-4.913 0.671,-6.522l0.001 -0.001c1.978,-1.609 4.912,-1.307 6.521,0.671l5.765 7.088z"></path></g></svg>