<svg height='100px' width='100px'  fill="#580173" xmlns="http://www.w3.org/2000/svg" xmlns:xlink="http://www.w3.org/1999/xlink" xml:space="preserve" version="1.0" style="shape-rendering:geometricPrecision;text-rendering:geometricPrecision;image-rendering:optimizeQuality;" viewBox="0 0 10000 10000" x="0px" y="0px" fill-rule="evenodd" clip-rule="evenodd"><defs><style type="text/css">
   
    .fil0 {fill:#580173;fill-rule:nonzero}
   
  </style></defs><g><path class="fil0" d="M6818 7990c168,-102 324,154 156,256 -596,363 -1278,554 -1976,554 -2098,0 -3799,-1702 -3799,-3800 0,-2098 1701,-3800 3799,-3800 2642,0 4501,2660 3552,5153 -350,1102 -1718,1169 -1823,-133l-1 -158c-367,597 -1018,966 -1728,966 -1119,0 -2028,-909 -2028,-2028 0,-1119 909,-2028 2028,-2028 711,0 1360,369 1728,966l0 -816c0,-197 300,-197 300,0l0 1842c4,410 0,822 0,1233 79,978 993,848 1239,62l1 -2 0 -1 1 -3 1 -1 1 -2 0 -2 1 -2c875,-2295 -839,-4746 -3272,-4746 -1933,0 -3499,1567 -3499,3500 0,1933 1567,3500 3499,3500 644,0 1270,-174 1820,-510zm-92 -3024c-18,-941 -786,-1694 -1728,-1694 -955,0 -1728,773 -1728,1728 0,955 773,1728 1728,1728 984,0 1728,-787 1728,-1762z"></path></g></svg>