<svg height='100px' width='100px'  fill="#580173" xmlns="http://www.w3.org/2000/svg" xmlns:xlink="http://www.w3.org/1999/xlink" version="1.1" x="0px" y="0px" viewBox="0 0 75.949 97.858" enable-background="new 0 0 75.949 97.858" xml:space="preserve"><g><path d="M75.944,29.732c0-0.006,0.004-0.012,0.004-0.018c-0.004-0.075-0.041-0.137-0.065-0.206c-0.018-0.05-0.02-0.105-0.047-0.15   c-0.05-0.08-0.126-0.136-0.202-0.193c-0.028-0.021-0.044-0.056-0.076-0.073c-0.002-0.001-0.004,0-0.006-0.001   c-0.003-0.001-0.004-0.005-0.007-0.006c0,0-14.763-7.645-26.444-13.694c0.414-0.613,0.835-1.183,1.252-1.679   c1.055-1.252,2.072-2.141,2.82-2.713c0.747-0.571,1.196-0.806,1.194-0.81c0.249-0.134,0.401-0.394,0.396-0.676   s-0.169-0.536-0.422-0.659L36.333,0.076c-0.216-0.105-0.472-0.101-0.684,0.015c-0.091,0.042-6.733,3.678-9.06,13.128   C16.547,19.72,0.342,30.212,0.342,30.212c-0.019,0.012-0.025,0.034-0.042,0.047c-0.067,0.052-0.122,0.113-0.168,0.185   c-0.018,0.028-0.041,0.051-0.055,0.082c-0.045,0.097-0.075,0.202-0.075,0.315v0.033c0,0.001,0,0.001,0,0.001   c0,0.001,0,0.002,0,0.002L0,76.167c0,0.279,0.157,0.536,0.405,0.666l40.427,20.94c0.098,0.051,0.205,0.07,0.312,0.075   c0.012,0.001,0.021,0.009,0.032,0.009c0.127,0,0.253-0.032,0.367-0.096l0.035-0.02c0.006-0.003,0.004-0.002,0.015-0.008   c0.001,0,0.001-0.001,0.001-0.001l33.97-18.945c0.237-0.133,0.385-0.381,0.385-0.654V29.75   C75.949,29.743,75.944,29.738,75.944,29.732z M32.343,4.935c1.055-1.252,2.072-2.142,2.82-2.713   c0.374-0.287,0.674-0.488,0.88-0.618l16.459,8.021c-2.373,1.747-7.646,6.659-8.57,16.237c-0.049,0.509-0.072,1.015-0.072,1.516   c0.009,3.861,1.332,7.346,2.37,9.493l-15.587-8.146c-0.088-0.126-0.233-0.343-0.421-0.646c-0.958-1.549-2.875-5.236-2.869-9.5   c0-0.445,0.019-0.894,0.064-1.345C27.979,11.389,30.235,7.444,32.343,4.935z M26.171,15.276c-0.096,0.588-0.187,1.183-0.247,1.811   c-0.051,0.505-0.072,1.003-0.072,1.491c0.004,1.869,0.332,3.604,0.786,5.128l-0.486-0.251l-6.128,3.487L47.15,40.983l6.127-3.491   l-6.048-3.13c0.258-1.318,0.739-2.765,1.599-4.198c3.49-5.82,6.885-7.976,8.642-8.752c7.061,3.657,13.651,7.071,16.233,8.408   L41.028,50.858L2.243,30.769C5.855,28.43,17.718,20.748,26.171,15.276z M1.5,32.073l38.735,20.063l0.189,43.736L1.5,75.71V32.073z    M41.922,95.833l-0.189-43.52l32.716-21.185v46.565L41.922,95.833z"></path></g></svg>