<svg height='100px' width='100px'  fill="#7d849f" xmlns="http://www.w3.org/2000/svg" xmlns:xlink="http://www.w3.org/1999/xlink" version="1.1" x="0px" y="0px" viewBox="0 0 32 32" enable-background="new 0 0 32 32" xml:space="preserve"><g><path d="M29.094,5.5h-1.644c-0.232-1.14-1.242-2-2.449-2s-2.217,0.86-2.449,2h-4.101c-0.232-1.14-1.242-2-2.449-2   s-2.217,0.86-2.449,2h-3.101c-0.232-1.14-1.242-2-2.449-2s-2.217,0.86-2.449,2H2.906C2.131,5.5,1.5,6.131,1.5,6.906V13v11.732   c0,2.077,1.69,3.768,3.768,3.768h21.464c2.078,0,3.768-1.69,3.768-3.768V13V6.906C30.5,6.131,29.869,5.5,29.094,5.5z M25,4.5   c0.651,0,1.201,0.419,1.408,1h-2.816C23.799,4.919,24.349,4.5,25,4.5z M16,4.5c0.651,0,1.201,0.419,1.408,1h-2.816   C14.799,4.919,15.349,4.5,16,4.5z M8,4.5c0.651,0,1.201,0.419,1.408,1H6.592C6.799,4.919,7.349,4.5,8,4.5z M2.5,6.906   C2.5,6.682,2.682,6.5,2.906,6.5h2.644c0.232,1.14,1.242,2,2.449,2c0.276,0,0.5-0.224,0.5-0.5S8.276,7.5,8,7.5   c-0.651,0-1.201-0.419-1.408-1h6.958c0.232,1.14,1.242,2,2.449,2c0.276,0,0.5-0.224,0.5-0.5S16.276,7.5,16,7.5   c-0.651,0-1.201-0.419-1.408-1h7.958c0.232,1.14,1.242,2,2.449,2c0.276,0,0.5-0.224,0.5-0.5S25.276,7.5,25,7.5   c-0.651,0-1.201-0.419-1.408-1h5.502c0.224,0,0.406,0.182,0.406,0.406V12.5h-27V6.906z M26.732,27.5H5.268   c-1.526,0-2.768-1.241-2.768-2.768V13.5h27v11.232C29.5,26.259,28.258,27.5,26.732,27.5z"></path></g></svg>