<svg height='100px' width='100px'  fill="#580074" xmlns="http://www.w3.org/2000/svg" xmlns:xlink="http://www.w3.org/1999/xlink" version="1.1" x="0px" y="0px" viewBox="0 0 24 24" style="enable-background:new 0 0 24 24;" xml:space="preserve"><g><g><g><path d="M17,20.5H1c-0.276,0-0.5-0.224-0.5-0.5V10c0-0.276,0.224-0.5,0.5-0.5h16c0.276,0,0.5,0.224,0.5,0.5v10     C17.5,20.276,17.276,20.5,17,20.5z M1.5,19.5h15v-9h-15V19.5z"></path></g><path d="M14,18.5h-1c-0.276,0-0.5-0.224-0.5-0.5s0.224-0.5,0.5-0.5h0.585c0.151-0.426,0.489-0.764,0.915-0.915v-3.171    c-0.426-0.151-0.764-0.489-0.915-0.915H13c-0.276,0-0.5-0.224-0.5-0.5s0.224-0.5,0.5-0.5h1c0.276,0,0.5,0.224,0.5,0.5    c0,0.276,0.224,0.5,0.5,0.5c0.276,0,0.5,0.224,0.5,0.5v4c0,0.276-0.224,0.5-0.5,0.5c-0.276,0-0.5,0.224-0.5,0.5    C14.5,18.276,14.276,18.5,14,18.5z"></path><path d="M5,18.5H4c-0.276,0-0.5-0.224-0.5-0.5c0-0.276-0.224-0.5-0.5-0.5c-0.276,0-0.5-0.224-0.5-0.5v-4    c0-0.276,0.224-0.5,0.5-0.5c0.276,0,0.5-0.224,0.5-0.5c0-0.276,0.224-0.5,0.5-0.5h1c0.276,0,0.5,0.224,0.5,0.5S5.276,12.5,5,12.5    H4.415c-0.151,0.426-0.489,0.764-0.915,0.915v3.171c0.426,0.151,0.764,0.489,0.915,0.915H5c0.276,0,0.5,0.224,0.5,0.5    S5.276,18.5,5,18.5z"></path></g><path d="M9,18.5c-1.93,0-3.5-1.57-3.5-3.5s1.57-3.5,3.5-3.5s3.5,1.57,3.5,3.5S10.93,18.5,9,18.5z M9,12.5   c-1.378,0-2.5,1.122-2.5,2.5s1.122,2.5,2.5,2.5s2.5-1.122,2.5-2.5S10.378,12.5,9,12.5z"></path><g><path d="M19,18.5h-2c-0.276,0-0.5-0.224-0.5-0.5s0.224-0.5,0.5-0.5h1.5v-9h-15V10c0,0.276-0.224,0.5-0.5,0.5S2.5,10.276,2.5,10V8    c0-0.276,0.224-0.5,0.5-0.5h16c0.276,0,0.5,0.224,0.5,0.5v10C19.5,18.276,19.276,18.5,19,18.5z"></path></g><g><path d="M21,16.5h-2c-0.276,0-0.5-0.224-0.5-0.5s0.224-0.5,0.5-0.5h1.5v-9h-15V8c0,0.276-0.224,0.5-0.5,0.5S4.5,8.276,4.5,8V6    c0-0.276,0.224-0.5,0.5-0.5h16c0.276,0,0.5,0.224,0.5,0.5v10C21.5,16.276,21.276,16.5,21,16.5z"></path></g><g><path d="M23,14.5h-2c-0.276,0-0.5-0.224-0.5-0.5s0.224-0.5,0.5-0.5h1.5v-9h-15V6c0,0.276-0.224,0.5-0.5,0.5S6.5,6.276,6.5,6V4    c0-0.276,0.224-0.5,0.5-0.5h16c0.276,0,0.5,0.224,0.5,0.5v10C23.5,14.276,23.276,14.5,23,14.5z"></path></g></g></svg>