<svg height='100px' width='100px'  fill="#ffffff" xmlns="http://www.w3.org/2000/svg" xmlns:xlink="http://www.w3.org/1999/xlink" viewBox="0 0 100 100" version="1.1" x="0px" y="0px"><title>i19 copy 2</title><desc>Created with Sketch.</desc><g stroke="none" stroke-width="1" fill="none" fill-rule="evenodd"><path d="M76.8839509,54.7760889 C71.5614709,58.0303462 64.4434354,59.8225943 56.8409911,59.8225943 C51.1567924,59.8225943 45.7440499,58.8198445 41.1493533,56.9540615 C41.7076437,56.9724452 42.26794,56.9831412 42.8309107,56.9831412 C51.1614727,56.9831412 59.0226696,54.9816526 64.9666237,51.3476874 C71.2184733,47.5252053 74.661487,42.3383149 74.661487,36.7423027 L74.661487,31.1890744 C75.4313929,31.5701193 76.1745543,31.9755645 76.8839509,32.4094209 C81.8985353,35.4751612 84.6602341,39.4470531 84.6602341,43.5927549 C84.6602341,47.7384567 81.8985353,51.7103486 76.8839509,54.7760889 L76.8839509,54.7760889 L76.8839509,54.7760889 L76.8839509,54.7760889 Z M79.689778,64.0468449 C79.689778,64.4161911 79.3902402,64.7153447 79.0211668,64.7153447 C78.651759,64.7153447 78.3525555,64.4161911 78.3525555,64.0468449 L78.3525555,57.3377804 C78.3525555,56.9684342 78.651759,56.6692805 79.0211668,56.6692805 C79.3902402,56.6692805 79.689778,56.9684342 79.689778,57.3377804 L79.689778,64.0468449 L79.689778,64.0468449 L79.689778,64.0468449 Z M72.1892969,67.7266023 C72.1892969,68.0959485 71.8900933,68.3951022 71.5206856,68.3951022 C71.1516122,68.3951022 70.8520744,68.0959485 70.8520744,67.7266023 L70.8520744,61.3517877 C70.8520744,60.9827758 71.1516122,60.6832879 71.5206856,60.6832879 C71.8900933,60.6832879 72.1892969,60.9827758 72.1892969,61.3517877 L72.1892969,67.7266023 L72.1892969,67.7266023 L72.1892969,67.7266023 Z M63.3515932,70.068023 L63.3515932,63.0243744 C63.3515932,62.6553624 63.6507968,62.3558745 64.0202045,62.3558745 C64.3892779,62.3558745 64.6888157,62.6553624 64.6888157,63.0243744 L64.6888157,70.068023 C64.6888157,70.4373692 64.3892779,70.7365229 64.0202045,70.7365229 C63.6507968,70.7365229 63.3515932,70.4373692 63.3515932,70.068023 L63.3515932,70.068023 L63.3515932,70.068023 L63.3515932,70.068023 Z M55.8511121,70.4026072 L55.8511121,63.6935427 C55.8511121,63.3241965 56.1503156,63.0250429 56.5197233,63.0250429 C56.8887968,63.0250429 57.1883346,63.3241965 57.1883346,63.6935427 L57.1883346,70.4026072 C57.1883346,70.7719534 56.8887968,71.0711071 56.5197233,71.0711071 C56.1503156,71.0711071 55.8511121,70.7719534 55.8511121,70.4026072 L55.8511121,70.4026072 L55.8511121,70.4026072 L55.8511121,70.4026072 Z M48.3502966,69.7337731 L48.3502966,63.3589585 C48.3502966,62.9899466 48.6498345,62.6904587 49.0189079,62.6904587 C49.3883156,62.6904587 49.6875192,62.9899466 49.6875192,63.3589585 L49.6875192,69.7337731 C49.6875192,70.102785 49.3883156,70.402273 49.0189079,70.402273 C48.6498345,70.402273 48.3502966,70.102785 48.3502966,69.7337731 L48.3502966,69.7337731 L48.3502966,69.7337731 L48.3502966,69.7337731 Z M66.2667383,75.6663751 C60.9442584,78.9202981 53.8262229,80.7125462 46.2237785,80.7125462 C38.6213342,80.7125462 31.5032987,78.9202981 26.1808187,75.6663751 C21.1662342,72.6003005 18.4045354,68.6287429 18.4045354,64.483041 C18.4045354,60.6735946 20.7416661,57.0132237 25.0104147,54.0654736 L25.0104147,54.0945533 C25.0104147,59.6902313 28.4534284,64.8771217 34.705278,68.6996039 C40.6488978,72.3339033 48.510429,74.3353919 56.8409911,74.3353919 C61.6035091,74.3353919 66.2109093,73.6785907 70.3960815,72.439192 C69.2644569,73.5923543 67.8847776,74.6769953 66.2667383,75.6663751 L66.2667383,75.6663751 L66.2667383,75.6663751 L66.2667383,75.6663751 Z M69.0725655,84.9367968 C69.0725655,85.3061429 68.7730276,85.6052966 68.4039542,85.6052966 C68.0345465,85.6052966 67.735343,85.3061429 67.735343,84.9367968 L67.735343,79.2314848 C67.735343,78.8621386 68.0345465,78.5629849 68.4039542,78.5629849 C68.7730276,78.5629849 69.0725655,78.8621386 69.0725655,79.2314848 L69.0725655,84.9367968 L69.0725655,84.9367968 L69.0725655,84.9367968 Z M61.57175,88.6165542 C61.57175,88.9859004 61.2725465,89.285054 60.9031388,89.285054 C60.5340654,89.285054 60.2345275,88.9859004 60.2345275,88.6165542 L60.2345275,82.2420739 C60.2345275,81.8727277 60.5340654,81.573574 60.9031388,81.573574 C61.2725465,81.573574 61.57175,81.8727277 61.57175,82.2420739 L61.57175,88.6165542 L61.57175,88.6165542 L61.57175,88.6165542 Z M54.0716032,90.9583092 C54.0716032,91.3276553 53.7720654,91.626809 53.4029919,91.626809 C53.0335842,91.626809 52.7343807,91.3276553 52.7343807,90.9583092 L52.7343807,83.9146605 C52.7343807,83.5453143 53.0335842,83.2461606 53.4029919,83.2461606 C53.7720654,83.2461606 54.0716032,83.5453143 54.0716032,83.9146605 L54.0716032,90.9583092 L54.0716032,90.9583092 L54.0716032,90.9583092 Z M46.5711221,91.2928933 C46.5711221,91.6619053 46.2719185,91.9613932 45.9025108,91.9613932 C45.5334374,91.9613932 45.2338995,91.6619053 45.2338995,91.2928933 L45.2338995,84.5834946 C45.2338995,84.2144827 45.5334374,83.9149947 45.9025108,83.9149947 C46.2719185,83.9149947 46.5711221,84.2144827 46.5711221,84.5834946 L46.5711221,91.2928933 L46.5711221,91.2928933 L46.5711221,91.2928933 Z M39.0706409,90.623725 C39.0706409,90.9930712 38.7711031,91.2922248 38.4020297,91.2922248 C38.0326219,91.2922248 37.7334184,90.9930712 37.7334184,90.623725 L37.7334184,84.2492447 C37.7334184,83.8798985 38.0326219,83.5807448 38.4020297,83.5807448 C38.7711031,83.5807448 39.0706409,83.8798985 39.0706409,84.2492447 L39.0706409,90.623725 L39.0706409,90.623725 L39.0706409,90.623725 Z M31.5701598,88.423692 C31.5701598,88.7930381 31.2709562,89.0921918 30.9015485,89.0921918 C30.5324751,89.0921918 30.2329373,88.7930381 30.2329373,88.423692 L30.2329373,82.3834616 C30.2329373,82.0144497 30.5324751,81.7149617 30.9015485,81.7149617 C31.2709562,81.7149617 31.5701598,82.0144497 31.5701598,82.3834616 L31.5701598,88.423692 L31.5701598,88.423692 L31.5701598,88.423692 Z M24.0696786,84.2679627 C24.0696786,84.6369746 23.7701408,84.9364625 23.4010674,84.9364625 C23.0316597,84.9364625 22.7324561,84.6369746 22.7324561,84.2679627 L22.7324561,77.8931481 C22.7324561,77.5241361 23.0316597,77.2246482 23.4010674,77.2246482 C23.7701408,77.2246482 24.0696786,77.5241361 24.0696786,77.8931481 L24.0696786,84.2679627 L24.0696786,84.2679627 L24.0696786,84.2679627 Z M28.1769576,44.1415933 L28.1769576,50.1814895 C28.1769576,50.5508356 27.8774198,50.8499893 27.5083464,50.8499893 C27.1389386,50.8499893 26.8397351,50.5508356 26.8397351,50.1814895 L26.8397351,44.1415933 C26.8397351,43.7722471 27.1389386,43.4730934 27.5083464,43.4730934 C27.8774198,43.4730934 28.1769576,43.7722471 28.1769576,44.1415933 L28.1769576,44.1415933 L28.1769576,44.1415933 L28.1769576,44.1415933 Z M34.6868912,60.0137853 L34.6868912,63.3776765 C34.6868912,63.7470227 34.3876876,64.0461764 34.0182799,64.0461764 C33.6492065,64.0461764 33.3496687,63.7470227 33.3496687,63.3776765 L33.3496687,60.0137853 C33.3496687,59.6444391 33.6492065,59.3452854 34.0182799,59.3452854 C34.3876876,59.3452854 34.6868912,59.6444391 34.6868912,60.0137853 L34.6868912,60.0137853 L34.6868912,60.0137853 L34.6868912,60.0137853 Z M34.3402162,52.3815225 L34.3402162,46.0070421 C34.3402162,45.6380302 34.6397541,45.3385423 35.0088275,45.3385423 C35.3782352,45.3385423 35.6774388,45.6380302 35.6774388,46.0070421 L35.6774388,52.3815225 C35.6774388,52.7508686 35.3782352,53.0500223 35.0088275,53.0500223 C34.6397541,53.0500223 34.3402162,52.7508686 34.3402162,52.3815225 L34.3402162,52.3815225 L34.3402162,52.3815225 L34.3402162,52.3815225 Z M41.5187611,60.8250098 C41.8878345,60.8250098 42.1873723,61.1244978 42.1873723,61.4935097 L42.1873723,67.5337401 C42.1873723,67.902752 41.8878345,68.20224 41.5187611,68.20224 C41.1493533,68.20224 40.8501498,67.902752 40.8501498,67.5337401 L40.8501498,61.4935097 C40.8501498,61.1244978 41.1493533,60.8250098 41.5187611,60.8250098 L41.5187611,60.8250098 L41.5187611,60.8250098 L41.5187611,60.8250098 Z M43.1779199,46.3416263 L43.1779199,53.0506908 C43.1779199,53.420037 42.8783821,53.7191907 42.5093086,53.7191907 C42.1399009,53.7191907 41.8406974,53.420037 41.8406974,53.0506908 L41.8406974,46.3416263 C41.8406974,45.9722801 42.1399009,45.6731265 42.5093086,45.6731265 C42.8783821,45.6731265 43.1779199,45.9722801 43.1779199,46.3416263 L43.1779199,46.3416263 L43.1779199,46.3416263 L43.1779199,46.3416263 Z M50.6780667,45.672458 L50.6780667,52.7161066 C50.6780667,53.0854528 50.3788632,53.3846065 50.0094555,53.3846065 C49.6403821,53.3846065 49.3408442,53.0854528 49.3408442,52.7161066 L49.3408442,45.672458 C49.3408442,45.303446 49.6403821,45.0039581 50.0094555,45.0039581 C50.3788632,45.0039581 50.6780667,45.303446 50.6780667,45.672458 L50.6780667,45.672458 L50.6780667,45.672458 L50.6780667,45.672458 Z M58.1788822,43.9998713 L58.1788822,50.3746859 C58.1788822,50.7436978 57.8793443,51.0431858 57.5102709,51.0431858 C57.1408632,51.0431858 56.8416597,50.7436978 56.8416597,50.3746859 L56.8416597,43.9998713 C56.8416597,43.6308594 57.1408632,43.3313715 57.5102709,43.3313715 C57.8793443,43.3313715 58.1788822,43.6308594 58.1788822,43.9998713 L58.1788822,43.9998713 L58.1788822,43.9998713 L58.1788822,43.9998713 Z M65.679029,39.9855297 L65.679029,46.0257601 C65.679029,46.3951063 65.3798255,46.69426 65.0104178,46.69426 C64.6413443,46.69426 64.3418065,46.3951063 64.3418065,46.0257601 L64.3418065,39.9855297 C64.3418065,39.6165178 64.6413443,39.3170299 65.0104178,39.3170299 C65.3798255,39.3170299 65.679029,39.6165178 65.679029,39.9855297 L65.679029,39.9855297 L65.679029,39.9855297 L65.679029,39.9855297 Z M15.0116676,26.2408385 C15.0116676,22.0951367 17.7733664,18.1232448 22.7879509,15.0575045 C28.1100965,11.8032472 35.228132,10.0109991 42.8309107,10.0109991 C50.4330207,10.0109991 57.5510562,11.8032472 62.8735362,15.0575045 C67.8881206,18.1232448 70.6498194,22.0951367 70.6498194,26.2408385 C70.6498194,30.3865403 67.8881206,34.3584322 62.8735362,37.4241725 C57.5510562,40.6784298 50.4330207,42.4706779 42.8309107,42.4706779 C35.228132,42.4706779 28.1100965,40.6784298 22.7879509,37.4241725 C17.7733664,34.3584322 15.0116676,30.3865403 15.0116676,26.2408385 L15.0116676,26.2408385 L15.0116676,26.2408385 L15.0116676,26.2408385 Z M20.6764765,46.0257601 C20.6764765,46.3951063 20.377273,46.69426 20.0078652,46.69426 C19.6387918,46.69426 19.339254,46.3951063 19.339254,46.0257601 L19.339254,39.6512798 C19.339254,39.2819336 19.6387918,38.9827799 20.0078652,38.9827799 C20.377273,38.9827799 20.6764765,39.2819336 20.6764765,39.6512798 L20.6764765,46.0257601 L20.6764765,46.0257601 L20.6764765,46.0257601 Z M78.9770384,28.9877044 C77.6324612,28.1654496 76.1852521,27.431771 74.661487,26.7809864 L74.661487,26.2408385 C74.661487,20.6448263 71.2184733,15.4579359 64.9666237,11.635788 C59.0226696,8.00148856 51.1614727,6 42.8309107,6 C34.5000143,6 26.6384831,8.00148856 20.6948633,11.635788 C14.4430137,15.4579359 11,20.6448263 11,26.2408385 L11,36.7423027 C11,42.3383149 14.4430137,47.5252053 20.6948633,51.3476874 C20.9205196,51.4857327 21.1545335,51.6167586 21.385873,51.7501244 C16.9583293,55.2340113 14.512215,59.5465039 14.3992197,64.1497939 L14.3928678,74.9845052 C14.3928678,80.5805175 17.8358815,85.7674078 24.0877312,89.5895557 C30.0320196,93.2238552 37.8932165,95.2253437 46.2237785,95.2253437 C54.5543405,95.2253437 62.4158718,93.2238552 68.3598259,89.5895557 C74.6116755,85.7674078 78.0546892,80.5805175 78.0546892,74.9845052 L78.0546892,69.2370777 C78.3655934,69.0612623 78.6754947,68.8841098 78.9770384,68.6996039 C85.228888,64.8771217 88.6719017,59.6902313 88.6719017,54.0945533 L88.6719017,43.5927549 C88.6719017,37.9967427 85.228888,32.8098523 78.9770384,28.9877044 L78.9770384,28.9877044 L78.9770384,28.9877044 Z" fill="#ffffff"></path></g></svg>