<svg height='100px' width='100px'  fill="#7d849f" xmlns="http://www.w3.org/2000/svg" xmlns:xlink="http://www.w3.org/1999/xlink" version="1.1" x="0px" y="0px" viewBox="0 0 100 100" enable-background="new 0 0 100 100" xml:space="preserve"><path d="M25.249,40.97h33.75c0.828,0,1.5-0.672,1.5-1.5c0-0.829-0.672-1.5-1.5-1.5h-33.75c-0.829,0-1.5,0.671-1.5,1.5  C23.749,40.298,24.42,40.97,25.249,40.97z M25.249,32.527h33.75c0.828,0,1.5-0.672,1.5-1.5c0-0.829-0.672-1.5-1.5-1.5h-33.75  c-0.829,0-1.5,0.671-1.5,1.5C23.749,31.855,24.42,32.527,25.249,32.527z M52.498,47.037c0-0.829-0.672-1.5-1.5-1.5h-25.75  c-0.829,0-1.5,0.671-1.5,1.5c0,0.828,0.671,1.5,1.5,1.5h25.75C51.826,48.537,52.498,47.865,52.498,47.037z M39.999,53.104h-14.75  c-0.829,0-1.5,0.672-1.5,1.5s0.671,1.5,1.5,1.5h14.75c0.829,0,1.5-0.672,1.5-1.5S40.827,53.104,39.999,53.104z M35.045,60.672  h-9.797c-0.829,0-1.5,0.672-1.5,1.5s0.671,1.5,1.5,1.5h9.797c0.829,0,1.5-0.672,1.5-1.5S35.874,60.672,35.045,60.672z   M71.766,62.693L61.377,74.938l-6.639-5.282c-0.646-0.516-1.592-0.409-2.107,0.24c-0.516,0.647-0.408,1.592,0.24,2.107l7.775,6.188  c0.275,0.22,0.605,0.326,0.932,0.326c0.426,0,0.85-0.181,1.145-0.529l11.33-13.354c0.537-0.632,0.459-1.578-0.172-2.114  C73.248,61.984,72.301,62.062,71.766,62.693z M68.541,50.08V24.43c0-0.396-0.156-0.774-0.434-1.056L54.023,9.165  c-0.283-0.284-0.666-0.443-1.066-0.443H17.206c-0.829,0-1.5,0.671-1.5,1.5v68.756c0,0.828,0.671,1.5,1.5,1.5h27.845  c3.577,6.434,10.439,10.801,18.307,10.801c11.545,0,20.938-9.392,20.938-20.937C84.295,60.589,77.582,52.396,68.541,50.08z   M43.699,77.478H18.706V11.722h32.751V24.43c0,0.829,0.672,1.5,1.5,1.5h12.584v23.59c-0.717-0.074-1.445-0.115-2.184-0.115  c-11.545,0-20.937,9.393-20.937,20.938C42.42,72.851,42.887,75.246,43.699,77.478z M63.357,88.278  c-9.891,0-17.937-8.046-17.937-17.937s8.046-17.938,17.937-17.938s17.938,8.047,17.938,17.938S73.248,88.278,63.357,88.278z"></path></svg>