<svg height='100px' width='100px'  fill="#580074" xmlns:dc="http://purl.org/dc/elements/1.1/" xmlns:cc="http://creativecommons.org/ns#" xmlns:rdf="http://www.w3.org/1999/02/22-rdf-syntax-ns#" xmlns:svg="http://www.w3.org/2000/svg" xmlns="http://www.w3.org/2000/svg" xmlns:sodipodi="http://sodipodi.sourceforge.net/DTD/sodipodi-0.dtd" xmlns:inkscape="http://www.inkscape.org/namespaces/inkscape" version="1.1" x="0px" y="0px" viewBox="0 0 100 100"><g transform="translate(0,-952.36218)"><path style="text-indent:0;text-transform:none;direction:ltr;block-progression:tb;baseline-shift:baseline;color:#000000;enable-background:accumulate;" d="m 33.788141,959.36218 c -0.160704,0.0354 -0.312341,0.11129 -0.437053,0.21875 l -22.976474,19 c -0.232972,0.18674 -0.3747884,0.48249 -0.3746162,0.78125 -0.00486,21.63562 0,43.34022 0,65.00002 5.22e-5,0.5236 0.4759282,0.9999 0.9989772,1 l 67.930444,0 c 0.523049,-10e-5 0.998926,-0.4764 0.998977,-1 l 0,-11 c 0.0075,-0.5283 -0.471152,-1.0143 -0.998977,-1.0143 -0.527824,0 -1.006441,0.486 -0.998977,1.0143 l 0,10 -65.93249,0 0,-62.21877 30.18784,-6.8125 c 0.723975,-0.16746 0.982069,-1.28039 0.405834,-1.75 -5.898548,-4.92049 -7.617196,-8.16712 -7.6172,-11.21875 l 42.956016,0 0,55.00002 c -0.0075,0.5283 0.471153,1.0142 0.998977,1.0142 0.527825,0 1.006442,-0.4859 0.998977,-1.0142 l 0,-56.00002 c -5.1e-5,-0.52358 -0.475928,-0.99995 -0.998977,-1 -15.04266,0 -30.112379,0 -45.141278,0 z m -0.749233,3.03125 c 0.367697,3.14745 2.454786,6.39493 6.867967,10.375 l -26.722638,6.0625 z m 11.925289,20.96875 c -10.470834,0 -18.980565,8.51833 -18.980565,19.00002 0,10.4815 8.509724,19 18.980565,19 5.945686,0 11.252863,-2.7382 14.734913,-7.0313 l 28.720592,16.875 c 0.450104,0.3321 1.175134,0.1817 1.456335,-0.3021 0.281201,-0.4838 0.05351,-1.189 -0.457358,-1.4166 l -28.564502,-16.75 c 1.948757,-2.9838 3.090586,-6.5495 3.090586,-10.375 0,-10.48169 -8.509732,-19.00002 -18.980566,-19.00002 z m 0,2 c 9.391069,0 16.982611,7.59919 16.982611,17.00002 0,9.4007 -7.591549,17 -16.982611,17 -9.391062,0 -16.982611,-7.5993 -16.982611,-17 0,-9.40083 7.591542,-17.00002 16.982611,-17.00002 z" fill="#580074" fill-opacity="1" stroke="none" marker="none" visibility="visible" display="inline" overflow="visible"></path></g></svg>