<svg height='100px' width='100px'  fill="#ffffff" xmlns="http://www.w3.org/2000/svg" xmlns:xlink="http://www.w3.org/1999/xlink" viewBox="0 0 24 24" version="1.1" x="0px" y="0px"><title>action_007-detail-information-question-news</title><desc>Created with Sketch.</desc><g stroke="none" stroke-width="1" fill="none" fill-rule="evenodd"><g transform="translate(-312.000000, -72.000000)" fill-rule="nonzero" fill="#ffffff"><g transform="translate(312.000000, 72.000000)"><path d="M12,24 C5.372583,24 0,18.627417 0,12 C0,5.372583 5.372583,0 12,0 C18.627417,0 24,5.372583 24,12 C24,18.627417 18.627417,24 12,24 Z M9.36078891,17.8460703 L9.36078891,17.8460703 L6.15392972,14.6392111 L5.49930202,17.9123496 C5.42932991,18.2622101 5.73778986,18.5706701 6.08765043,18.500698 L9.36078891,17.8460703 Z M17.3033009,10.232233 L13.767767,6.69669914 L6.69669914,13.767767 L10.232233,17.3033009 L17.3033009,10.232233 Z M19.0710678,6.34314575 L17.6568542,4.92893219 C17.0710678,4.34314575 16.1213203,4.34314575 15.5355339,4.92893219 L14.4748737,5.98959236 L18.0104076,9.52512627 L19.0710678,8.46446609 C19.6568542,7.87867966 19.6568542,6.92893219 19.0710678,6.34314575 Z"></path></g></g></g></svg>