<svg height='100px' width='100px'  fill="#580074" xmlns="http://www.w3.org/2000/svg" xmlns:xlink="http://www.w3.org/1999/xlink" version="1.1" x="0px" y="0px" viewBox="0 0 200 200" style="enable-background:new 0 0 200 200;" xml:space="preserve"><style type="text/css">
	.st0{fill:#580074;stroke:#580074;stroke-width:4;stroke-linecap:round;stroke-miterlimit:10;}
</style><path class="st0" d="M1059,201.7"></path><g><path d="M94.3,128.2c-0.1-12.7-10.3-23-22.9-23c-12.6,0-22.9,10.4-22.9,23.1V172c0,1.7,1.3,3,3,3s3-1.3,3-3v-43.6   c0-9.4,7.6-17.1,16.9-17.1c9.3,0,16.9,7.7,16.9,17.1c0,0.1,0,0.2,0,0.3l1.7,14.6h-4.2c-1.7,0-3,1.3-3,3v11c0,1.3-1,2.4-2.3,2.4h-9   c-1.7,0-3,1.3-3,3v9.4c0,1.7,1.3,3,3,3s3-1.3,3-3v-6.4h6c4.6,0,8.3-3.8,8.3-8.4v-8h4.6c0.9,0,1.7-0.4,2.2-1   c0.6-0.6,0.8-1.5,0.7-2.3L94.3,128.2z"></path><path d="M128.5,105.3c-12.6,0-22.8,10.3-22.9,23l-2,17.7c-0.1,0.8,0.2,1.7,0.7,2.3c0.6,0.6,1.4,1,2.2,1h4.6v8   c0,4.6,3.7,8.4,8.3,8.4h6v6.4c0,1.7,1.3,3,3,3c1.7,0,3-1.3,3-3v-9.4c0-1.7-1.3-3-3-3h-9c-1.3,0-2.3-1.1-2.3-2.4v-11   c0-1.7-1.3-3-3-3H110l1.7-14.6c0-0.1,0-0.2,0-0.3c0-9.4,7.6-17.1,16.9-17.1c9.3,0,16.9,7.7,16.9,17.1V172c0,1.7,1.3,3,3,3   c1.7,0,3-1.3,3-3v-43.6C151.4,115.6,141.1,105.3,128.5,105.3z"></path><path d="M132.1,25H67.9c-7.3,0-14.2,2.9-19.4,8.1c-5.2,5.2-8,12.2-8,19.6c0,15.3,12.3,27.7,27.4,27.7h4.9v15.3   c0,1.4,0.9,2.6,2.2,2.9c1.3,0.3,2.7-0.2,3.4-1.4l9.5-16.8h24.2l9.5,16.8c0.5,1,1.5,1.5,2.6,1.5c0.3,0,0.5,0,0.8-0.1   c1.3-0.3,2.2-1.5,2.2-2.9V80.4h4.9c7.3,0,14.2-2.9,19.4-8.1c5.2-5.2,8-12.2,8-19.6C159.5,37.4,147.2,25,132.1,25z M147.2,68   c-4,4.1-9.4,6.3-15.1,6.3h-7.9c-1.7,0-3,1.3-3,3v6.9l-4.7-8.4c-0.5-0.9-1.5-1.5-2.6-1.5H86.1c-1.1,0-2.1,0.6-2.6,1.5l-4.7,8.4v-6.9   c0-1.7-1.3-3-3-3h-7.9c-11.8,0-21.4-9.7-21.4-21.7c0-5.8,2.2-11.2,6.3-15.3c4-4.1,9.4-6.3,15.1-6.3h64.3c11.8,0,21.4,9.7,21.4,21.7   C153.5,58.5,151.3,63.9,147.2,68z"></path></g></svg>