<svg height='100px' width='100px'  fill="#580074" xmlns:x="http://ns.adobe.com/Extensibility/1.0/" xmlns:i="http://ns.adobe.com/AdobeIllustrator/10.0/" xmlns:graph="http://ns.adobe.com/Graphs/1.0/" xmlns="http://www.w3.org/2000/svg" xmlns:xlink="http://www.w3.org/1999/xlink" version="1.1" x="0px" y="0px" viewBox="0 0 100 100" enable-background="new 0 0 100 100" xml:space="preserve"><g><g i:extraneous="self"><g><path d="M18.842,50.52c0.005,0.202,0.048,0.394,0.129,0.579c0.026,0.062,0.046,0.122,0.082,0.179     c0.125,0.209,0.284,0.4,0.508,0.536c0.003,0.002,0.009,0.002,0.012,0.004c0.004,0.002,0.005,0.007,0.009,0.009l29.756,17.435     c0.023,0.014,0.05,0.007,0.075,0.021c0.214,0.11,0.45,0.192,0.711,0.192c0.261,0,0.497-0.082,0.713-0.196     c0.027-0.011,0.058-0.007,0.084-0.021l29.227-17.438c0.229-0.136,0.389-0.331,0.519-0.544c0.035-0.059,0.057-0.114,0.082-0.177     c0.082-0.186,0.125-0.377,0.132-0.579c0-0.043,0.028-0.078,0.025-0.119c0-0.019-0.015-0.032-0.019-0.051     c-0.018-0.229-0.075-0.453-0.2-0.663L51.459,0.758c-0.011-0.02-0.03-0.028-0.043-0.047c-0.035-0.056-0.078-0.1-0.121-0.15     c-0.054-0.063-0.109-0.119-0.172-0.175c-0.048-0.039-0.091-0.082-0.142-0.114c-0.02-0.014-0.03-0.034-0.05-0.046     c-0.034-0.021-0.071-0.021-0.105-0.038c-0.068-0.036-0.136-0.062-0.211-0.088c-0.062-0.022-0.124-0.044-0.191-0.057     c-0.066-0.015-0.13-0.018-0.196-0.021C50.192,0.018,50.16,0,50.124,0s-0.064,0.018-0.1,0.02c-0.064,0.006-0.124,0.007-0.186,0.02     c-0.071,0.013-0.136,0.036-0.206,0.059c-0.073,0.025-0.141,0.052-0.209,0.088c-0.031,0.017-0.066,0.017-0.097,0.034     c-0.018,0.011-0.029,0.03-0.046,0.041c-0.055,0.036-0.102,0.08-0.154,0.125c-0.062,0.054-0.118,0.107-0.172,0.17     c-0.039,0.048-0.082,0.091-0.114,0.142c-0.015,0.02-0.034,0.03-0.047,0.05l-29.755,48.93c-0.129,0.21-0.186,0.439-0.206,0.672     c-0.002,0.02-0.016,0.033-0.018,0.054C18.813,50.443,18.84,50.479,18.842,50.52z M51.68,7.191l23.767,39.791L51.68,36.08V7.191z      M48.569,36.071L24.308,47.002L48.569,7.107V36.071z M48.569,39.485v25.718L23.754,50.665L48.569,39.485z M51.68,65.178V39.501     l24.332,11.164L51.68,65.178z"></path><path d="M80.773,55.836c-0.493-0.54-1.305-0.647-1.935-0.286L50.124,72.503L21.421,55.55c-0.627-0.365-1.439-0.254-1.938,0.286     c-0.497,0.544-0.549,1.354-0.124,1.955l29.495,41.555c0.023,0.032,0.061,0.042,0.084,0.071c0.061,0.074,0.122,0.139,0.193,0.2     c0.034,0.028,0.054,0.071,0.091,0.096c0.029,0.021,0.066,0.012,0.097,0.032c0.05,0.029,0.093,0.071,0.148,0.098     c0.198,0.096,0.417,0.157,0.651,0.157c0.001,0,0.001,0,0.003,0c0,0,0,0,0.002,0l0,0l0,0c0.002,0,0.002,0,0.002,0     c0.001,0,0.001,0,0.003,0c0.234,0,0.452-0.062,0.651-0.157c0.055-0.026,0.098-0.068,0.148-0.098     c0.03-0.021,0.067-0.011,0.097-0.032c0.037-0.024,0.057-0.067,0.091-0.096c0.071-0.062,0.133-0.126,0.192-0.2     c0.023-0.029,0.062-0.039,0.084-0.071l29.506-41.555C81.324,57.19,81.271,56.38,80.773,55.836z M48.569,75.202v18.362     L26.123,61.942L48.569,75.202z M51.68,93.564V75.202l22.455-13.26L51.68,93.564z"></path></g></g></g></svg>