<svg height='100px' width='100px'  fill="#580173" xmlns="http://www.w3.org/2000/svg" xmlns:xlink="http://www.w3.org/1999/xlink" version="1.1" x="0px" y="0px" viewBox="0 0 100 100" style="enable-background:new 0 0 100 100;" xml:space="preserve"><g><path d="M41.866,93.767c0.319,0.77,1.063,1.234,1.848,1.234c0.255,0,0.515-0.05,0.765-0.153c1.021-0.424,1.504-1.594,1.081-2.614   L33.054,62.087c6.427-7.159,15.399-8.346,24.885-9.582c10.211-1.33,20.771-2.706,28.245-11.902c0.463-0.57,0.577-1.35,0.295-2.028   L73.062,6.233c-0.27-0.65-0.862-1.111-1.559-1.213c-0.698-0.101-1.396,0.171-1.84,0.718c-6.468,7.96-15.789,9.174-25.657,10.459   c-9.247,1.204-18.771,2.466-26.039,9.519l-0.75-1.809c-0.423-1.021-1.594-1.503-2.613-1.081c-1.021,0.424-1.504,1.594-1.081,2.614   L41.866,93.767z M44.522,20.164c9.247-1.205,18.779-2.446,26.048-9.5l11.745,28.311c-6.427,7.158-15.407,8.328-24.893,9.563   c-9.247,1.205-18.779,2.446-26.047,9.5L19.63,29.727C26.057,22.568,35.036,21.399,44.522,20.164z"></path></g></svg>