<svg height='100px' width='100px'  fill="#580074" xmlns="http://www.w3.org/2000/svg" xmlns:xlink="http://www.w3.org/1999/xlink" version="1.1" x="0px" y="0px" viewBox="0 0 512 512" style="enable-background:new 0 0 512 512;" xml:space="preserve"><g><g><g><path d="M256,493c-63.305,0-122.821-24.652-167.584-69.416C43.652,378.821,19,319.305,19,256S43.652,133.179,88.416,88.416     C133.179,43.652,192.695,19,256,19s122.821,24.652,167.584,69.416C468.348,133.179,493,192.695,493,256     s-24.652,122.821-69.416,167.584C378.821,468.348,319.305,493,256,493z M256,33C133.038,33,33,133.038,33,256     c0,122.963,100.038,223,223,223c122.963,0,223-100.037,223-223C479,133.038,378.963,33,256,33z"></path></g><g><path d="M256,493c-34.79,0-67.128-25.26-91.059-71.128C141.764,377.45,129,318.542,129,256s12.764-121.45,35.941-165.873     C188.872,44.26,221.21,19,256,19s67.128,25.26,91.059,71.127C370.236,134.55,383,193.458,383,256s-12.764,121.45-35.941,165.872     C323.128,467.74,290.79,493,256,493z M256,33c-29.317,0-57.248,22.588-78.647,63.604C155.2,139.063,143,195.671,143,256     c0,60.328,12.2,116.937,34.353,159.396C198.752,456.412,226.683,479,256,479s57.247-22.588,78.646-63.604     C356.8,372.937,369,316.328,369,256c0-60.329-12.2-116.937-34.354-159.396C313.247,55.588,285.317,33,256,33z"></path></g><g><path d="M256,493c-3.866,0-7-3.134-7-7V26c0-3.866,3.134-7,7-7s7,3.134,7,7v460C263,489.866,259.866,493,256,493z"></path></g><g><path d="M486,263H26c-3.866,0-7-3.134-7-7s3.134-7,7-7h460c3.866,0,7,3.134,7,7S489.866,263,486,263z"></path></g></g></g></svg>