<svg height='100px' width='100px'  fill="#580074" xmlns:dc="http://purl.org/dc/elements/1.1/" xmlns:cc="http://creativecommons.org/ns#" xmlns:rdf="http://www.w3.org/1999/02/22-rdf-syntax-ns#" xmlns:svg="http://www.w3.org/2000/svg" xmlns="http://www.w3.org/2000/svg" xmlns:sodipodi="http://sodipodi.sourceforge.net/DTD/sodipodi-0.dtd" xmlns:inkscape="http://www.inkscape.org/namespaces/inkscape" viewBox="0 0 100 100" version="1.1" x="0px" y="0px"><g transform="translate(0,-952.36216)"><path style="color:#000000;font-style:normal;font-variant:normal;font-weight:normal;font-stretch:normal;font-size:medium;line-height:normal;font-family:sans-serif;text-indent:0;text-align:start;text-decoration:none;text-decoration-line:none;text-decoration-style:solid;text-decoration-color:#000000;letter-spacing:normal;word-spacing:normal;text-transform:none;direction:ltr;block-progression:tb;writing-mode:lr-tb;baseline-shift:baseline;text-anchor:start;white-space:normal;clip-rule:nonzero;display:inline;overflow:visible;visibility:visible;opacity:1;isolation:auto;mix-blend-mode:normal;color-interpolation:sRGB;color-interpolation-filters:linearRGB;solid-color:#000000;solid-opacity:1;fill:#580074;fill-opacity:1;fill-rule:nonzero;stroke:none;stroke-width:3;stroke-linecap:round;stroke-linejoin:round;stroke-miterlimit:4;stroke-dasharray:none;stroke-dashoffset:0;stroke-opacity:1;marker:none;color-rendering:auto;image-rendering:auto;shape-rendering:auto;text-rendering:auto;enable-background:accumulate" d="m 43.88,957.3606 c -4.2292,0 -7.6826,3.455 -7.6826,7.6847 l 0,0.2059 c -1.2771,-0.9455 -2.8496,-1.5125 -4.5538,-1.5125 -4.2284,0 -7.6826,3.453 -7.6826,7.6827 l 0,32.2429 -3.6018,-6.2373 c -1.5861,-2.7472 -4.6359,-4.1461 -7.6073,-3.7813 l 0,0 c -0.9904,0.1216 -1.9727,0.4396 -2.8883,0.9682 -3.664,2.1155 -4.9292,6.8344 -2.8129,10.4977 l 10.6647,18.4697 a 1.565628,1.565628 0 0 0 0.019,0.03 c 3.6412,6.3094 6.6005,12.1611 11.0011,16.5617 4.4093,4.4093 10.3344,7.1872 19.2117,7.1873 7.2686,10e-5 14.2587,-2.2319 19.4828,-6.639 5.224,-4.407 8.6101,-11.0294 8.6101,-19.3992 l 0,-16.1622 0,-21.3276 c 0,-4.2297 -3.454,-7.6847 -7.6847,-7.6847 -1.703,0 -3.2751,0.567 -4.5517,1.5126 l 0,-4.2644 c 0,-4.2297 -3.4559,-7.6846 -7.6868,-7.6846 -1.7034,0 -3.2747,0.5683 -4.5516,1.5145 l 0,-2.179 c 0,-4.2297 -3.454,-7.6847 -7.6847,-7.6847 z m 0,3.1309 c 2.5509,0 4.5537,2.0048 4.5537,4.5538 l 0,8.3492 0,27.5894 a 1.565628,1.565628 0 1 0 3.131,0 l 0,-27.5894 c 0,-2.549 2.0047,-4.5538 4.5516,-4.5538 2.5509,0 4.5559,2.0048 4.5559,4.5538 l 0,10.4364 0,19.2403 a 1.565628,1.565628 0 0 0 1.4329,1.5818 1.565628,1.565628 0 0 0 0.157,0.01 1.565628,1.565628 0 0 0 1.541,-1.5879 l 0,-19.2403 c 0,-2.549 2.0034,-4.5537 4.5517,-4.5537 2.5509,0 4.5537,2.0047 4.5537,4.5537 l 0,21.3276 0,16.1622 c 0,7.541 -2.9309,13.154 -7.4971,17.0062 -4.5664,3.8522 -10.8396,5.9012 -17.4648,5.9011 -8.2512,-10e-5 -13.0879,-2.3598 -16.998,-6.2701 -3.909,-3.909 -6.8255,-9.5411 -10.5221,-15.9441 l 0,-0.01 0,0 -10.6608,-18.4636 c -1.2754,-2.2077 -0.5418,-4.9437 1.6675,-6.2191 2.2068,-1.2742 4.9445,-0.5401 6.2191,1.6674 l 6.4452,11.1641 a 1.565628,1.565628 0 0 0 0.1713,0.2936 l 3.453,5.9806 a 1.565628,1.565628 0 1 0 2.711,-1.5654 l -3.3368,-5.7809 0,-37.663 c 0,-2.5491 2.0048,-4.5517 4.5517,-4.5517 2.5509,0 4.5537,2.0026 4.5537,4.5517 l 0,31.6498 a 1.565628,1.565628 0 1 0 3.131,0 l 0,-31.6498 0,-6.3761 c 0,-2.549 2.0034,-4.5538 4.5517,-4.5538 z"></path></g></svg>