<svg height='100px' width='100px'  fill="#580074" xmlns:dc="http://purl.org/dc/elements/1.1/" xmlns:cc="http://creativecommons.org/ns#" xmlns:rdf="http://www.w3.org/1999/02/22-rdf-syntax-ns#" xmlns:svg="http://www.w3.org/2000/svg" xmlns="http://www.w3.org/2000/svg" xmlns:sodipodi="http://sodipodi.sourceforge.net/DTD/sodipodi-0.dtd" xmlns:inkscape="http://www.inkscape.org/namespaces/inkscape" version="1.1" x="0px" y="0px" viewBox="0 0 100 100"><g transform="translate(0,-952.36218)"><path style="font-size:medium;font-style:normal;font-variant:normal;font-weight:normal;font-stretch:normal;text-indent:0;text-align:start;text-decoration:none;line-height:normal;letter-spacing:normal;word-spacing:normal;text-transform:none;direction:ltr;block-progression:tb;writing-mode:lr-tb;text-anchor:start;baseline-shift:baseline;opacity:1;color:#000000;fill:#580074;fill-opacity:1;stroke:none;stroke-width:2;marker:none;visibility:visible;display:inline;overflow:visible;enable-background:accumulate;font-family:Sans;-inkscape-font-specification:Sans" d="M 49.78125 12 A 1.0001 1.0001 0 0 0 49.375 12.1875 L 12.40625 41.25 A 1.0004882 1.0004882 0 1 0 13.65625 42.8125 L 50 14.28125 L 90.40625 46.03125 L 84.96875 50.6875 L 50.625 24.1875 A 1.0001 1.0001 0 0 0 49.375 24.1875 L 15.03125 50.6875 L 8.65625 45.21875 A 1.0083877 1.0083877 0 1 0 7.34375 46.75 L 14.34375 52.75 A 1.0001 1.0001 0 0 0 15.625 52.78125 L 17.3125 51.46875 L 25.03125 87.1875 A 1.0001 1.0001 0 0 0 26 88 L 74 88 A 1.0001 1.0001 0 0 0 74.96875 87.1875 L 82.6875 51.46875 L 84.375 52.78125 A 1.0001 1.0001 0 0 0 85.65625 52.75 L 92.65625 46.75 A 1.0001 1.0001 0 0 0 92.625 45.1875 L 50.625 12.1875 A 1.0001 1.0001 0 0 0 49.78125 12 z M 50 26.25 L 80.96875 50.125 L 73.1875 86 L 26.8125 86 L 19.03125 50.125 L 50 26.25 z M 50 45 C 42.832137 45 37 50.8322 37 58 C 37 65.1678 42.83214 71 50 71 C 57.16786 71 63 65.1678 63 58 C 63 50.8322 57.167863 45 50 45 z M 50 47 C 56.086973 47 61 51.913 61 58 C 61 64.087 56.086976 69 50 69 C 43.913024 69 39 64.087 39 58 C 39 51.913 43.913027 47 50 47 z " transform="translate(0,952.36218)"></path></g></svg>