<svg height='100px' width='100px'  fill="#580074" xmlns:dc="http://purl.org/dc/elements/1.1/" xmlns:cc="http://creativecommons.org/ns#" xmlns:rdf="http://www.w3.org/1999/02/22-rdf-syntax-ns#" xmlns:svg="http://www.w3.org/2000/svg" xmlns="http://www.w3.org/2000/svg" xmlns:sodipodi="http://sodipodi.sourceforge.net/DTD/sodipodi-0.dtd" xmlns:inkscape="http://www.inkscape.org/namespaces/inkscape" version="1.1" x="0px" y="0px" viewBox="0 0 100 100"><g transform="translate(0,-952.36218)"><path style="text-indent:0;text-transform:none;direction:ltr;block-progression:tb;baseline-shift:baseline;color:#000000;enable-background:accumulate;" d="m 19.000001,985.36365 c -9.4007002,0 -16.9999999,7.5993 -16.9999999,16.99995 0,9.4008 7.5992997,17.0001 16.9999999,17.0001 l 19,0 a 1.0001,1.0001 0 1 0 0,-2 l -19,0 c -8.3273,0 -14.9999999,-6.6727 -14.9999999,-15.0001 0,-8.32725 6.6726999,-14.99995 14.9999999,-14.99995 l 21,0 c 8.3273,0 15,6.6727 15,14.99995 a 1.0001,1.0001 0 1 0 2,0 c 0,-9.40065 -7.5993,-16.99995 -17,-16.99995 l -21,0 z m 42.8438,0 a 1.0030452,1.0030452 0 0 0 0.1562,2 l 19,0 c 8.3273,0 15,6.6727 15,14.99995 0,8.3274 -6.6727,15.0001 -15,15.0001 l -21,0 c -8.3273,0 -15,-6.6727 -15,-15.0001 a 1.0001,1.0001 0 1 0 -2,0 c 0,9.4008 7.5993,17.0001 17,17.0001 l 21,0 c 9.4007,0 16.999998,-7.5993 16.999998,-17.0001 0,-9.40065 -7.599298,-16.99995 -16.999998,-16.99995 l -19,0 a 1.0001,1.0001 0 0 0 -0.1562,0 z" fill="#580074" fill-opacity="1" stroke="none" marker="none" visibility="visible" display="inline" overflow="visible"></path></g></svg>