<svg height='100px' width='100px'  fill="#7d849f" xmlns="http://www.w3.org/2000/svg" xmlns:xlink="http://www.w3.org/1999/xlink" xml:space="preserve" version="1.1" style="shape-rendering:geometricPrecision;text-rendering:geometricPrecision;image-rendering:optimizeQuality;" viewBox="0 0 732.2 712.66" x="0px" y="0px" fill-rule="evenodd" clip-rule="evenodd"><defs><style type="text/css">
   
    .fil0 {fill:#7d849f}
   
  </style></defs><g><path class="fil0" d="M295.96 277.03c-66.76,59.12 -176.39,59.12 -243.15,0 -67.56,-59.82 -73.36,-181.07 0.49,-238.13 67.11,-51.86 175.06,-51.86 242.18,0 72.03,55.67 66.03,180.08 0.48,238.13zm200.58 119.26l30.04 -2.99c2.45,13.6 8.31,22.71 18.72,26.77l0 -42.53c-22.32,-6.36 -43,-17.52 -43,-44.44 0,-25.95 20.4,-38.52 43,-41.78l0 -17.29 26.44 0 0 17.35c24.46,3.45 43.28,16.86 44.29,45.69l-30.88 1.08c-1.79,-10.72 -6.13,-16.87 -13.41,-19.85l0 34.04c26.54,6.82 48.76,16.87 48.76,48.98 0,30.12 -23.1,43.37 -48.76,46.42l0 17.12 -26.44 0 0 -17.31c-27.54,-3.82 -45,-19.72 -48.76,-51.26zm75.2 24.68c9.49,-2.51 17.88,-8.38 17.88,-19.47 0,-9.2 -8.36,-14.2 -17.88,-17.34l0 36.81zm-26.44 -103.5c-7.14,1.89 -13.61,5.86 -13.61,13.57 0,6.84 6.25,11.22 13.61,14.18l0 -27.75zm-433.6 -160.84l30.03 -2.99c2.45,13.61 8.31,22.72 18.72,26.77l0 -42.53c-22.32,-6.35 -43.01,-17.52 -43.01,-44.44 0,-25.95 20.4,-38.52 43.01,-41.79l0 -17.28 26.44 0 0 17.34c24.45,3.46 43.27,16.86 44.29,45.7l-30.88 1.07c-1.79,-10.71 -6.13,-16.85 -13.41,-19.84l0 34.04c26.53,6.82 48.76,16.86 48.76,48.98 0,30.13 -23.11,43.38 -48.76,46.43l0 17.11 -26.44 0 0 -17.31c-27.54,-3.82 -45,-19.72 -48.75,-51.26zm75.19 24.67c9.49,-2.49 17.88,-8.38 17.88,-19.45 0,-9.23 -8.37,-14.21 -17.88,-17.36l0 36.81zm-26.44 -103.48c-7.14,1.88 -13.62,5.85 -13.62,13.56 0,6.84 6.26,11.22 13.62,14.19l0 -27.75zm520.36 433.73c-66.76,59.13 -176.37,59.13 -243.13,0 -67.56,-59.83 -73.38,-181.06 0.47,-238.12 67.12,-51.86 175.07,-51.86 242.19,0 72.04,55.67 66.02,180.08 0.47,238.12zm-121.56 -25.39c67.16,-0.32 153.29,-40.63 153.29,-116.63 0,-31.83 -16.86,-60.77 -44.12,-81.84 -60.08,-46.41 -158.27,-46.41 -218.35,0 -27.26,21.07 -44.12,50.01 -44.12,81.84 0,75.85 86.17,116.32 153.3,116.63zm121.59 101.71c-66.78,62.16 -176.41,62.16 -243.19,0 -34.09,-31.72 -52.44,-79.87 -52.8,-127.51 27.06,73.1 95.61,116.86 174.38,116.86 78.14,0 146.38,-42.81 172.97,-115.57 -0.68,47.69 -18.56,95.69 -51.36,126.22zm0 78.17c-66.78,62.15 -176.41,62.15 -243.19,0 -34.09,-31.71 -52.44,-79.87 -52.8,-127.51 27.06,73.11 95.61,116.86 174.38,116.86 78.14,0 146.38,-42.81 172.97,-115.56 -0.68,47.68 -18.56,95.69 -51.36,126.21zm-384.86 0c-66.77,62.15 -176.41,62.15 -243.19,0 -34.08,-31.71 -52.45,-79.87 -52.79,-127.51 27.06,73.11 95.61,116.86 174.36,116.86 78.14,0 146.4,-42.81 172.97,-115.56 -0.66,47.68 -18.54,95.69 -51.35,126.21zm0 -78.17c-66.77,62.16 -176.41,62.16 -243.19,0 -34.08,-31.72 -52.45,-79.88 -52.79,-127.51 27.06,73.1 95.61,116.86 174.36,116.86 78.14,0 146.4,-42.81 172.97,-115.57 -0.66,47.69 -18.54,95.69 -51.35,126.22zm0 -78.18c-66.77,62.16 -176.41,62.16 -243.19,0 -34.08,-31.72 -52.45,-79.87 -52.79,-127.51 27.06,73.12 95.61,116.86 174.36,116.86 78.14,0 146.4,-42.81 172.97,-115.55 -0.66,47.66 -18.54,95.68 -51.35,126.2zm0 -78.17c-66.77,62.16 -176.41,62.16 -243.19,0 -34.08,-31.73 -52.45,-79.88 -52.79,-127.52 27.06,73.12 95.61,116.86 174.36,116.86 78.14,0 146.4,-42.81 172.97,-115.55 -0.66,47.66 -18.54,95.67 -51.35,126.21zm0 -78.18c-66.77,62.16 -176.41,62.16 -243.19,0 -34.08,-31.71 -52.45,-79.88 -52.79,-127.51 27.06,73.11 95.61,116.86 174.36,116.86 78.14,0 146.4,-42.81 172.97,-115.56 -0.66,47.68 -18.54,95.68 -51.35,126.21zm-121.59 -101.71c67.16,-0.32 153.3,-40.64 153.3,-116.64 0,-31.81 -16.86,-60.76 -44.12,-81.82 -60.08,-46.41 -158.29,-46.41 -218.37,0 -27.25,21.06 -44.12,50.01 -44.12,81.82 0,75.86 86.18,116.33 153.31,116.64z"></path></g></svg>