<svg height='100px' width='100px'  fill="#580173" xmlns:x="http://ns.adobe.com/Extensibility/1.0/" xmlns:i="http://ns.adobe.com/AdobeIllustrator/10.0/" xmlns:graph="http://ns.adobe.com/Graphs/1.0/" xmlns="http://www.w3.org/2000/svg" xmlns:xlink="http://www.w3.org/1999/xlink" version="1.1" x="0px" y="0px" viewBox="-205 207 100 100" style="enable-background:new -205 207 100 100;" xml:space="preserve"><g><g i:extraneous="self"><path d="M-187.7,255.3h46.8l-10-10l2.4-2.4l14,14l-14,14l-2.4-2.4l10-10h-46.8V255.3z M-122,276.5v-39    c0-7.4-6-13.4-13.4-13.4h-39c-7.4,0-13.4,6-13.4,13.4v8h3.3v-8c0-5.6,4.5-10.1,10.1-10.1h39c5.6,0,10.1,4.5,10.1,10.1v39    c0,5.6-4.5,10.1-10.1,10.1h-39c-5.6,0-10.1-4.5-10.1-10.1v-7.9h-3.3v7.9c0,7.4,6,13.4,13.4,13.4h39    C-128.1,290-122,283.9-122,276.5z"></path></g></g></svg>