<svg height='100px' width='100px'  fill="#580074" xmlns="http://www.w3.org/2000/svg" xmlns:xlink="http://www.w3.org/1999/xlink" version="1.1" x="0px" y="0px" viewBox="0 0 512 512" enable-background="new 0 0 512 512" xml:space="preserve"><path d="M503.182,189.782C485.484,123.769,443.15,68.579,383.947,34.4  C345.051,11.938,300.891,0.065,256.238,0.065c-91.266,0-176.26,49.05-221.834,127.999C0.218,187.236-8.858,256.203,8.825,322.233  c17.69,66.029,60.031,121.203,119.219,155.381c38.904,22.432,83.064,34.32,127.709,34.32c91.266,0,176.275-49.051,221.842-127.983  C511.789,324.748,520.85,255.781,503.182,189.782z M490.654,218.213c2.156,13.168,3.171,26.603,3.046,39.927l-0.016,2.328  l-77.495,77.512l-36.85-21.276L488.857,207.2L490.654,218.213z M470.145,152.808c4.779,9.935,8.903,20.276,12.246,30.742  l1.062,3.312L363.016,307.3l-36.834-21.308L466.645,145.56L470.145,152.808z M436.152,100.868c3.266,3.796,6.42,7.701,9.467,11.716  c3.155,4.17,6.139,8.435,8.998,12.793l2.561,3.905L309.873,276.589l-36.865-21.276L432.123,96.197L436.152,100.868z M265.088,18.374  l6.084,0.375c9.614,0.609,19.268,1.812,28.703,3.593l10.654,2l-45.441,45.426V18.374z M265.088,95.51l65.311-65.311l3.405,1.171  c10.278,3.593,20.417,7.904,30.103,12.841l7.014,3.593L265.088,153.62V95.51z M265.088,179.363L386.916,57.551l3.92,2.703  c8.451,5.811,16.527,12.168,24.041,18.917l4.498,4.03L265.088,237.489V179.363z M453.82,387.747  c-9.076,13.684-19.573,26.416-31.195,37.85c-14.762,14.512-31.43,27.071-49.503,37.271c-35.741,20.198-76.34,30.852-117.368,30.852  c-20.386,0-40.685-2.624-60.352-7.811c-20.276-5.373-39.873-13.465-58.235-24.057c-27.813-16.073-51.627-37.084-70.794-62.452  c-18.511-24.478-31.953-52.018-39.959-81.87c-7.998-29.883-10.13-60.468-6.334-90.929c3.905-31.523,14.02-61.609,30.07-89.446  c10.794-18.683,23.994-35.74,39.225-50.737c14.746-14.527,31.397-27.055,49.487-37.271c31.047-17.542,66.303-28.04,101.935-30.367  l6.107-0.375l0.016,236.939c-0.25,3.515,1.492,6.779,4.53,8.545l205.743,118.782L453.82,387.747z M466.316,366.909l-33.819-19.526  l59.97-59.907l-4.141,19.012c-4.092,18.9-10.59,37.396-19.307,54.954L466.316,366.909z"></path></svg>