<svg height='100px' width='100px'  fill="#ffffff" xmlns="http://www.w3.org/2000/svg" xmlns:xlink="http://www.w3.org/1999/xlink" version="1.1" x="0px" y="0px" viewBox="0 0 100 100" style="enable-background:new 0 0 100 100;" xml:space="preserve"><g><path d="M83.8,49.6L69,34.7c-0.8-0.8-2-0.8-2.8,0c-0.8,0.8-0.8,2,0,2.8L77.6,49H33c-1.1,0-2,0.9-2,2s0.9,2,2,2h44.6L66.2,64.4   c-0.8,0.8-0.8,2,0,2.8c0.4,0.4,0.9,0.6,1.4,0.6s1-0.2,1.4-0.6l14.8-14.8c0.4-0.4,0.6-0.9,0.6-1.4S84.2,50,83.8,49.6z"></path><path d="M25.3,81H51c1.1,0,2-0.9,2-2s-0.9-2-2-2H25.3c-4,0-7.3-3.3-7.3-7.3V32.3c0-4,3.3-7.3,7.3-7.3H51c1.1,0,2-0.9,2-2   s-0.9-2-2-2H25.3C19.1,21,14,26.1,14,32.3v37.3C14,75.9,19.1,81,25.3,81z"></path></g></svg>