<svg height='100px' width='100px'  fill="#580074" xmlns="http://www.w3.org/2000/svg" viewBox="0 0 32 32" x="0px" y="0px"><g data-name="49-Strategy"><path d="M12.29,8.29,13.59,7l-1.3-1.29a1,1,0,0,1,1.42-1.42L15,5.59l1.29-1.3a1,1,0,1,1,1.42,1.42L16.41,7l1.3,1.29a1,1,0,0,1,0,1.42,1,1,0,0,1-1.42,0L15,8.41l-1.29,1.3a1,1,0,0,1-1.42,0A1,1,0,0,1,12.29,8.29Zm-6,7.42a1,1,0,0,0,1.42,0,1,1,0,0,0,0-1.42L6.41,13l1.3-1.29a1,1,0,0,0-1.42-1.42L5,11.59l-1.29-1.3a1,1,0,0,0-1.42,1.42L3.59,13l-1.3,1.29a1,1,0,0,0,0,1.42,1,1,0,0,0,1.42,0L5,14.41Zm19.42,8.58a1,1,0,0,0-1.42,0L23,25.59l-1.29-1.3a1,1,0,0,0-1.42,1.42L21.59,27l-1.3,1.29a1,1,0,0,0,0,1.42,1,1,0,0,0,1.42,0L23,28.41l1.29,1.3a1,1,0,0,0,1.42,0,1,1,0,0,0,0-1.42L24.41,27l1.3-1.29A1,1,0,0,0,25.71,24.29ZM26,8a3,3,0,1,0-3-3A3,3,0,0,0,26,8Zm3.71,5.29-3-3a1,1,0,0,0-1.42,0l-3,3a1,1,0,0,0-.21,1.09A1,1,0,0,0,23,15h2a3,3,0,0,1-3,3H11a5,5,0,0,0-5,5v1.18a3,3,0,1,0,2,0V23a3,3,0,0,1,3-3H22a5,5,0,0,0,5-5h2a1,1,0,0,0,.92-.62A1,1,0,0,0,29.71,13.29Z"></path></g></svg>