<svg height='100px' width='100px'  fill="#580074" xmlns="http://www.w3.org/2000/svg" xmlns:xlink="http://www.w3.org/1999/xlink" version="1.1" x="0px" y="0px" viewBox="0 0 100 100" enable-background="new 0 0 100 100" xml:space="preserve"><path d="M23.5,76.6c3,0,5.1,0.8,7.6,1.8c3.7,1.5,8.7,3.4,19.9,3.6c-0.6-1-1-2.2-1-3.4c0-2.1,1-3.9,2.5-5.1c-1.3-1.2-2.2-2.9-2.2-4.9  c0-1.9,0.9-3.7,2.2-4.9c-1.5-1.2-2.5-3-2.5-5.1c0-2,0.9-3.9,2.5-5.1c-1.4-1.2-2.2-2.9-2.2-4.9c0-1.3,0.4-2.5,1-3.5h-5.1  c-0.6,4.9-2.1,6.5-2.4,6.8c-0.3,0.3-0.7,0.4-1,0.4c-0.4,0-0.8-0.2-1.1-0.5c-0.5-0.6-0.5-1.5,0.1-2.1c0,0,1.3-1.4,1.6-6.2l1-14.2  c0-2-0.3-7.1-3.2-9.7c-1.3-1.2-3-1.8-5.1-1.8l0,12.5c0,0.1,0,0.3-0.1,0.4l-2,7.5c0,0.1,0,0.1-0.1,0.2c-0.1,0.4-3.7,9.1-10,10.9  c-0.8,0.2-1.6-0.2-1.9-1c-0.2-0.8,0.2-1.6,1-1.9c4.6-1.3,7.7-8.3,8-9.1l1.9-7.2l0-13.8c0-0.8,0.6-1.4,1.4-1.5  c3.6-0.3,6.6,0.5,8.8,2.6c3.6,3.4,4.1,8.9,4.1,12l-0.9,12.7h24.1c3.6,0,6.5,2.9,6.5,6.5c0,1.8-0.7,3.4-1.9,4.6  c1.7,1.2,2.9,3.1,2.9,5.4c0,2.2-1.1,4.2-2.9,5.4c1.2,1.2,1.9,2.8,1.9,4.6c0,2.5-1.4,4.7-3.5,5.8c1,1.1,1.5,2.6,1.5,4.2  c0,3.6-2.9,6.5-6.5,6.5l-15.7,0c-13.1,0-18.7-2.2-22.8-3.8c-2.4-0.9-4.1-1.6-6.5-1.6c-0.8,0-1.5-0.7-1.5-1.5S22.7,76.6,23.5,76.6z   M71.5,62.2c1.9,0,3.5-1.6,3.5-3.5c0-1.9-1.6-3.5-3.5-3.5l-15.4,0c-1.7,0.2-3,1.7-3,3.4c0,1.9,1.6,3.5,3.5,3.5H71.5z M70.5,45.3  H56.2c-1.7,0.2-2.9,1.7-2.9,3.5c0,1.9,1.6,3.5,3.5,3.5h13.7c1.9,0,3.5-1.6,3.5-3.5S72.4,45.3,70.5,45.3z M70.5,65.2l-14.2,0  c-1.7,0.2-3,1.7-3,3.4c0,1.9,1.6,3.5,3.5,3.5h13.7c1.9,0,3.5-1.6,3.5-3.5C74,66.7,72.4,65.2,70.5,65.2z M72,78.6  c0-1.9-1.6-3.5-3.5-3.5h-12c-1.9,0-3.5,1.6-3.5,3.5c0,1.8,1.4,3.3,3.2,3.4l12.3,0C70.4,82.1,72,80.5,72,78.6z"></path></svg>