<svg height='100px' width='100px'  fill="#ffffff" xmlns="http://www.w3.org/2000/svg" xmlns:xlink="http://www.w3.org/1999/xlink" version="1.1" x="0px" y="0px" viewBox="0 0 100 100" enable-background="new 0 0 100 100" xml:space="preserve"><path d="M75.2,50.7c-6.3,1.8-9.8,10.5-10,10.9c0,0.1,0,0.1-0.1,0.2l-2,7.5c0,0.1-0.1,0.3-0.1,0.4v12.5c-2.1,0-3.8-0.7-5.1-1.8  c-2.9-2.7-3.2-7.7-3.2-9.6l1-14.3c0-0.4-0.1-0.8-0.4-1.1c-0.3-0.3-0.7-0.5-1.1-0.5H29.5c-1.9,0-3.5-1.6-3.5-3.5s1.6-3.5,3.5-3.5H32  c0.8,0,1.5-0.7,1.5-1.5s-0.7-1.5-1.5-1.5h-2.5c-1.9,0-3.5-1.6-3.5-3.5s1.6-3.5,3.5-3.5l0,0H32c0.8,0,1.5-0.7,1.5-1.5  s-0.7-1.5-1.5-1.5h-2.5c-1.9,0-3.5-1.6-3.5-3.5c0-0.8,0.2-3.5,2.7-3.5H32l0,0c0.8,0,1.5-0.7,1.5-1.5s-0.7-1.5-1.5-1.5l0,0h-2.5  c-1.9,0-3.5-1.6-3.5-3.5s1.6-3.5,3.5-3.5h16.7c12.5,0,17.8,2.1,21.7,3.6c2.5,1,4.6,1.8,7.6,1.8c0.8,0,1.5-0.7,1.5-1.5  s-0.7-1.5-1.5-1.5c-2.4,0-4.1-0.7-6.5-1.6c-4.1-1.6-9.7-3.8-22.8-3.8H29.5c-3.6,0-6.5,2.9-6.5,6.5c0,1.9,0.8,3.6,2.1,4.8  C23.9,27.2,23,29,23,31.4c0,2,0.9,3.8,2.3,5c-1.4,1.2-2.4,3-2.4,5s0.9,3.8,2.3,5c-1.4,1.2-2.3,3-2.3,5c0,3.6,2.9,6.5,6.5,6.5h23.1  l-0.9,12.8c0,3,0.5,8.6,4.1,11.9c1.9,1.8,4.4,2.6,7.4,2.6c0.5,0,0.9,0,1.4-0.1c0.8-0.1,1.4-0.7,1.4-1.5V69.8l1.9-7.2  c0.3-0.8,3.4-7.7,8-9.1c0.8-0.2,1.3-1.1,1-1.9C76.8,51,76,50.5,75.2,50.7z"></path></svg>