<svg height='100px' width='100px'  fill="#580074" xmlns="http://www.w3.org/2000/svg" xmlns:xlink="http://www.w3.org/1999/xlink" version="1.1" x="0px" y="0px" viewBox="0 0 100 100" enable-background="new 0 0 100 100" xml:space="preserve"><path d="M55.2,77.7c-2.3-1.9-4.5-2.6-7-3.5c-3.8-1.3-8.9-3-17.6-10c1.1-0.4,2.2-1,3-2c1.3-1.6,1.8-3.6,1.4-5.5  c1.8,0,3.6-0.8,4.8-2.3c1.2-1.5,1.7-3.4,1.4-5.2c1.9,0,3.8-0.7,5.1-2.3c1.3-1.6,1.8-3.6,1.4-5.5c1.8,0,3.6-0.8,4.8-2.3  c0.8-1,1.3-2.1,1.5-3.3l3.9,3.3c-2.7,4.1-2.6,6.3-2.5,6.7c0.1,0.4,0.3,0.7,0.5,1c0.3,0.3,0.7,0.4,1.2,0.3c0.8-0.1,1.4-0.9,1.3-1.7  c0,0-0.1-1.9,2.7-5.7l8.4-11.5c1.3-1.6,4.7-5.2,8.7-5.4c1.8-0.1,3.5,0.5,5.1,1.9l-8.1,9.6c-0.1,0.1-0.2,0.2-0.2,0.3l-3.3,7  c0,0.1,0,0.1-0.1,0.2c-0.1,0.4-3,9.3,0.6,14.8c0.5,0.7,1.4,0.9,2.1,0.4c0.7-0.5,0.9-1.4,0.4-2.1c-2.7-4-0.6-11.2-0.3-12.1l3.1-6.8  l8.9-10.5c0.5-0.6,0.5-1.5-0.1-2c-2.6-2.6-5.4-3.8-8.4-3.7c-4.9,0.2-8.9,4.2-10.9,6.6l-7.5,10.3L41.3,21.2c-2.7-2.3-6.8-1.9-9.1,0.8  c-1.1,1.4-1.6,3.1-1.5,4.7c-2.1-0.2-4.2,0.6-5.7,2.3c-1.4,1.7-1.8,4-1.3,6c-1.6,0.1-3.2,0.9-4.4,2.3c-1.6,1.9-1.9,4.5-1,6.7  c-1.5,0.2-2.8,1-3.9,2.2c-2.3,2.7-1.9,6.8,0.8,9.1l12,10.1c10,8.4,15.7,10.3,19.9,11.7c2.4,0.8,4.2,1.4,6,2.9  c0.6,0.5,1.6,0.4,2.1-0.2C56,79.2,55.9,78.2,55.2,77.7z M27.8,35.8c-1.5-1.2-1.7-3.4-0.4-4.9c1.2-1.5,3.4-1.7,4.9-0.4L44,40.4  c1.2,1.3,1.2,3.2,0.1,4.6c-1.2,1.5-3.4,1.7-4.9,0.4L27.8,35.8z M39.4,23.5l10.9,9.2c1.1,1.3,1.1,3.2,0,4.5c-1.2,1.5-3.4,1.7-4.9,0.4  l-10.5-8.8c-1.5-1.2-1.7-3.4-0.4-4.9C35.7,22.4,37.9,22.2,39.4,23.5z M26.6,38.7l10.8,9.1c1.2,1.3,1.2,3.2,0.1,4.6  c-1.2,1.5-3.4,1.7-4.9,0.4l-10.5-8.8c-1.5-1.2-1.7-3.4-0.4-4.9C22.9,37.7,25.1,37.5,26.6,38.7z M16.8,48.1c1.2-1.5,3.4-1.7,4.9-0.4  l9.2,7.7c1.5,1.2,1.7,3.4,0.4,4.9c-1.2,1.4-3.2,1.6-4.6,0.6L17.3,53C15.8,51.7,15.6,49.5,16.8,48.1z"></path></svg>