<svg height='100px' width='100px'  fill="#580074" xmlns="http://www.w3.org/2000/svg" xmlns:xlink="http://www.w3.org/1999/xlink" xml:space="preserve" version="1.1" style="shape-rendering:geometricPrecision;text-rendering:geometricPrecision;image-rendering:optimizeQuality;" viewBox="0 0 3.034 3.034" x="0px" y="0px" fill-rule="evenodd" clip-rule="evenodd"><defs><style type="text/css">
   
    .fil0 {fill:#580074;fill-rule:nonzero}
   
  </style></defs><g><path class="fil0" d="M0.433 0.361l2.167 0c0.04,0 0.073,0.033 0.073,0.072l0 1.806c0,0.04 -0.033,0.072 -0.073,0.072l-2.167 0c-0.039,0 -0.072,-0.032 -0.072,-0.072l0 -0.291c-0.031,-0.004 -0.055,-0.03 -0.055,-0.062l0 -0.381c0,-0.032 0.024,-0.059 0.055,-0.062l0 -0.213c-0.031,-0.004 -0.055,-0.03 -0.055,-0.062l0 -0.381c0,-0.032 0.024,-0.059 0.055,-0.062l0 -0.292c0,-0.039 0.033,-0.072 0.072,-0.072zm-0.289 2.239l0 0.289 0.217 0 0 -0.289c0,-0.04 0.033,-0.072 0.072,-0.072l2.167 0c0.04,0 0.073,0.032 0.073,0.072l0 0.289 0.216 0 0 -2.745 -2.745 0 0 2.456zm-0.144 0.361l0 -2.889c0,-0.04 0.032,-0.072 0.072,-0.072l2.889 0c0.04,0 0.073,0.032 0.073,0.072l0 2.889c0,0.04 -0.033,0.073 -0.073,0.073l-0.361 0c-0.04,0 -0.072,-0.033 -0.072,-0.073l0 -0.288 -2.022 0 0 0.288c0,0.04 -0.033,0.073 -0.073,0.073l-0.361 0c-0.04,0 -0.072,-0.033 -0.072,-0.073zm0.506 -1.518c0.03,0.005 0.053,0.03 0.053,0.062l0 0.381c0,0.031 -0.023,0.057 -0.053,0.061l0 0.22 2.022 0 0 -1.661 -2.022 0 0 0.219c0.03,0.005 0.053,0.031 0.053,0.062l0 0.381c0,0.031 -0.023,0.057 -0.053,0.061l0 0.214zm0.362 -0.396c0,-0.04 0.032,-0.072 0.072,-0.072 0.04,0 0.072,0.032 0.072,0.072l0 0.578c0,0.04 -0.032,0.072 -0.072,0.072 -0.04,0 -0.072,-0.032 -0.072,-0.072l0 -0.578zm1.082 -0.072c0.1,0 0.19,0.041 0.255,0.106l0.001 0c0.065,0.066 0.105,0.156 0.105,0.255 0,0.1 -0.04,0.19 -0.105,0.255l-0.001 0.001c-0.065,0.065 -0.155,0.105 -0.255,0.105 -0.099,0 -0.189,-0.04 -0.255,-0.105l0 -0.001c-0.066,-0.065 -0.106,-0.155 -0.106,-0.255 0,-0.099 0.04,-0.189 0.106,-0.255l0 0c0.066,-0.065 0.156,-0.106 0.255,-0.106zm0.153 0.208c-0.039,-0.039 -0.093,-0.063 -0.153,-0.063 -0.06,0 -0.114,0.024 -0.153,0.063l0 0c-0.039,0.039 -0.063,0.093 -0.063,0.153 0,0.06 0.024,0.114 0.063,0.153l0 0.001c0.039,0.039 0.093,0.063 0.153,0.063 0.06,0 0.114,-0.024 0.153,-0.063l0.001 -0.001c0.039,-0.039 0.063,-0.093 0.063,-0.153 0,-0.06 -0.024,-0.114 -0.063,-0.153l-0.001 0z"></path></g></svg>