<svg height='100px' width='100px'  fill="#7d849f" xmlns="http://www.w3.org/2000/svg" xmlns:xlink="http://www.w3.org/1999/xlink" version="1.1" x="0px" y="0px" viewBox="0 0 100 100" style="enable-background:new 0 0 100 100;" xml:space="preserve"><g><g><g><path d="M34.94,41.66c-1.1,0-2-0.9-2-2V17.99c0-3.87,3.08-7.02,6.86-7.02c3.78,0,6.86,3.15,6.86,7.02c0,1.1-0.9,2-2,2s-2-0.9-2-2     c0-1.67-1.28-3.02-2.86-3.02s-2.86,1.36-2.86,3.02v21.67C36.94,40.77,36.05,41.66,34.94,41.66z"></path></g></g></g><g><g><g><path d="M54.4,46.56c-1.1,0-2-0.9-2-2v-31.9c0-1.67-1.28-3.03-2.86-3.03c-1.58,0-2.86,1.36-2.86,3.03v31.9c0,1.1-0.9,2-2,2     s-2-0.9-2-2v-31.9c0-3.87,3.08-7.03,6.86-7.03c3.78,0,6.86,3.15,6.86,7.03v31.9C56.4,45.66,55.5,46.56,54.4,46.56z"></path></g></g></g><g><g><g><path d="M64.12,30.53c-1.1,0-2-0.9-2-2V18.07c0-1.67-1.29-3.03-2.86-3.03s-2.86,1.36-2.86,3.03c0,1.1-0.9,2-2,2s-2-0.9-2-2     c0-3.88,3.08-7.03,6.86-7.03s6.86,3.15,6.86,7.03v10.46C66.12,29.64,65.23,30.53,64.12,30.53z"></path></g></g></g><g><g><g><path d="M51.26,94.36c-2.77,0-5.79-0.27-6.28-0.31c-0.07-0.01-0.13-0.02-0.2-0.03C32.83,91.7,24.15,81.19,24.15,69.03V39.05     c0-1.72,0.91-3.25,2.43-4.09c1.68-0.93,3.84-0.86,5.49,0.18l2,1.38c0.06,0.04,0.12,0.09,0.17,0.13c2.61,2.26,4.11,5.29,4.11,8.31     v11.73c3.29,1.68,12.17,7.04,12.17,16.15c0,1.1-0.9,2-2,2s-2-0.9-2-2c0-8.33-10.81-12.99-10.92-13.03     c-0.29-0.12-0.54-0.31-0.75-0.55c-0.31-0.36-0.5-0.85-0.5-1.33V44.96c0-1.83-0.96-3.72-2.65-5.22l-1.83-1.27     c-0.42-0.26-1.01-0.2-1.35-0.02c-0.32,0.18-0.36,0.39-0.36,0.59v29.98c0,10.21,7.27,19.05,17.3,21.04     c2.58,0.23,7.1,0.46,8.62,0.11c10.47-2.45,17.79-11.14,17.79-21.15v-41.3c0-1.67-1.28-3.03-2.86-3.03s-2.86,1.36-2.86,3.03v20.09     c0,1.1-0.9,2-2,2s-2-0.9-2-2V27.73c0-3.88,3.08-7.03,6.86-7.03s6.86,3.15,6.86,7.03v41.3c0,11.88-8.59,22.17-20.88,25.05     C54.06,94.29,52.69,94.36,51.26,94.36z"></path></g></g></g></svg>