<svg height='100px' width='100px'  fill="#ffffff" xmlns="http://www.w3.org/2000/svg" xmlns:xlink="http://www.w3.org/1999/xlink" version="1.1" x="0px" y="0px" viewBox="0 0 100 100" style="enable-background:new 0 0 100 100;" xml:space="preserve"><path d="M81.4,13.6L52.1,42.9c-1.2,1.2-3.1,1.2-4.2,0L18.6,13.6c-1.2-1.2-3.1-1.2-4.2,0l0,0c-1.2,1.2-1.2,3.1,0,4.2l29.3,29.3  c1.2,1.2,1.2,3.1,0,4.2L14.3,80.7c-1.2,1.2-1.2,3.1,0,4.2h0c1.2,1.2,3.1,1.2,4.2,0l29.3-29.3c1.2-1.2,3.1-1.2,4.2,0L81.4,85  c1.2,1.2,3.1,1.2,4.2,0l0,0c1.2-1.2,1.2-3.1,0-4.2L56.4,51.4c-1.2-1.2-1.2-3.1,0-4.2l29.3-29.3c1.2-1.2,1.2-3.1,0-4.2v0  C84.5,12.5,82.6,12.5,81.4,13.6z"></path></svg>