<?xml version="1.0" encoding="UTF-8"?>
<svg width="36px" height="36px" viewBox="0 0 36 36" version="1.1" xmlns="http://www.w3.org/2000/svg" xmlns:xlink="http://www.w3.org/1999/xlink">
    <!-- Generator: Sketch 52.2 (67145) - http://www.bohemiancoding.com/sketch -->
    <title>logo</title>
    <desc>Created with Sketch.</desc>
    <g id="logo" stroke="none" stroke-width="1" fill="none" fill-rule="evenodd">
        <g>
            <path d="M33.09375,17.9773371 C34.0640625,17.9773371 34.890625,18.6147309 35.1601563,19.5 C35.2140625,18.9157224 35.25,18.3491501 35.25,17.7471671 C35.25,8.36331445 27.5234375,0.75 18,0.75 C8.4765625,0.75 0.75,8.36331445 0.75,17.7471671 C0.75,17.8179887 0.75,17.9065156 0.75,17.9773371 L33.09375,17.9773371 Z" id="Shape" fill="#D8D1C6" fill-rule="nonzero"></path>
            <circle id="Oval" fill="#FF7507" fill-rule="nonzero" cx="10.875" cy="8.625" r="3.375"></circle>
            <circle id="Oval" fill="#FF7507" fill-rule="nonzero" cx="22.5" cy="10.5" r="5.25"></circle>
            <path d="M14.5535058,18.6427933 C14.8938224,18.6655719 15.2360049,18.6886426 15.5794936,18.711958 L17.2992183,16.5477707 L18.2335933,17.0851911 L20.0304682,17.7480096 L21.3062495,17.0851911 L25.3851556,12.75 L26.8046868,14.6488854 L27.4874993,14.093551 L28.3859368,14.093551 L30.6499992,17.2464172 L32.2671867,16.977707 L35.097277,20.1823388 C35.1979796,20.1926906 35.2502529,20.1994367 35.2499991,20.2022293 C34.4128642,29.4113177 27.5234368,35.25 17.9999995,35.25 C8.47656229,35.25 0.75,27.5469745 0.75,18.0525478 C0.75,17.958437 1.62451322,17.9469565 3.09507504,17.9944714 L5.54765612,13.6994427 L8.38671855,13.6994427 L9.79347587,18.3371627 C10.4186134,18.3752411 11.0624992,18.4154585 11.720502,18.4574217 L13.4179684,18.0167197 L14.5535058,18.6427933 Z" id="Combined-Shape" fill="#C2B5AE" fill-rule="nonzero"></path>
            <path d="M18.0065932,35.25 C10.8289124,35.25 4.69077307,30.281872 2.25,24.0178971 C2.73815461,24.0178971 3.24438903,24.0357941 3.76870324,24.0357941 C4.02182045,24.1073824 4.31109726,24.1431766 4.61845387,24.1431766 C4.87157107,24.1431766 5.48087644,24.0536912 5.69783404,24 C5.80631285,24 5.93287145,24 6.04135025,24.0178971 C6.00519065,24.1252795 6.00519065,24.1610736 6.00519065,24.1968678 C6.00519065,25.002236 6.561643,25.63648 7.73683003,25.63648 C8.89393726,25.63648 9.5,25.1266499 9.5542394,24.3570758 C9.73503741,24.3749729 10.250611,24.3391787 10.431409,24.3570758 C15.3129551,24.8760909 15.574813,25.7837079 15.574813,25.8195021 C15.5928928,25.8910903 15.4967036,26.6690654 14.5203943,27.331257 C12.4231375,28.7630227 12.1939763,29.0218809 12.3928541,29.9167345 C12.6278915,30.9905588 13.8218099,30.9622411 15.8480903,31.5634732 C16.3938388,31.7254061 17.1317562,31.8140322 17.8368684,31.9572088 C18.6142998,32.1361795 19.4278908,32.2972531 20.2053223,32.4404297 C21.6517063,32.7267828 23.1161701,33.013136 24.2732774,33.3710774 C24.0803309,34.0398724 20.1038501,35.25 18.0065932,35.25 Z" id="Shape" fill="#D8D1C6" fill-rule="nonzero"></path>
            <path d="M7.875,20.25 C7.875,20.25 6.75,24.03 6.75,24.102 C6.75,24.462 7.25,24.75 7.875,24.75 C8.5,24.75 9,24.462 9,24.102 C8.984375,24.048 7.875,20.25 7.875,20.25 Z" id="Shape" fill="#FF7507" fill-rule="nonzero"></path>
            <path d="M4.875,18.75 C4.875,18.75 3.75,22.5271084 3.75,22.5993976 C3.75,22.9608434 4.25704225,23.25 4.875,23.25 C5.49295775,23.25 6,22.9608434 6,22.5993976 C6,22.5271084 4.875,18.75 4.875,18.75 Z" id="Shape" fill="#FF7507" fill-rule="nonzero"></path>
            <path d="M28.5,19.1534296 C28.5,20.6155235 21.75,20.6155235 21.75,19.1534296 C21.75,17.6913357 23.2577922,16.5 25.1162338,16.5 C26.9746753,16.5 28.5,17.6732852 28.5,19.1534296 Z" id="Shape" fill="#E1A57A" fill-rule="nonzero"></path>
            <path d="M31.5,22.9034888 C31.5,24.3655037 24.75,24.3655037 24.75,22.9034888 C24.75,21.4414739 26.2577922,20.2502024 28.1162338,20.2502024 C29.9922078,20.2321529 31.5,21.4234243 31.5,22.9034888 Z" id="Shape" fill="#E1A57A" fill-rule="nonzero"></path>
            <path d="M24.75,27.4034296 C24.75,28.8655235 18,28.8655235 18,27.4034296 C18,25.9413357 19.5077922,24.75 21.3662338,24.75 C23.2246753,24.75 24.75,25.9413357 24.75,27.4034296 Z" id="Shape" fill="#E1A57A" fill-rule="nonzero"></path>
            <circle id="Oval-3" cx="18" cy="18" r="18"></circle>
            <path d="M18,0 C8.082,0 0,8.082 0,18 C0,27.918 8.082,36 18,36 C27.918,36 36,27.918 36,18 C36,8.082 27.918,0 18,0 Z M18,34.56 C10.962,34.56 4.932,30.15 2.538,23.94 C3.006,23.94 3.51,23.958 4.014,23.958 C4.266,24.03 4.536,24.066 4.842,24.066 C5.076,24.066 5.31,24.048 5.508,23.994 C5.616,23.994 5.724,23.994 5.85,24.012 C5.814,24.12 5.814,24.156 5.814,24.192 C5.814,24.984 6.66,25.56 7.83,25.56 C8.964,25.56 9.792,25.02 9.828,24.264 C10.008,24.282 10.206,24.3 10.386,24.318 C15.174,24.84 15.498,25.704 15.498,25.74 C15.516,25.812 15.408,26.19 14.436,26.838 C12.402,28.242 11.7,29.088 11.88,29.97 C12.096,31.032 13.482,31.302 15.588,31.698 C16.182,31.806 16.848,31.932 17.532,32.094 C18.288,32.256 19.098,32.418 19.872,32.58 C21.276,32.868 22.716,33.156 23.868,33.498 C22.05,34.182 20.07,34.56 18,34.56 Z M4.392,22.518 C4.5,22.194 4.662,21.672 4.86,21.114 C5.058,21.69 5.238,22.212 5.328,22.536 C5.004,22.536 4.698,22.518 4.392,22.518 Z M7.362,24.048 C7.47,23.724 7.65,23.184 7.848,22.59 C8.046,23.184 8.226,23.724 8.334,24.048 C8.226,24.084 8.046,24.12 7.848,24.12 C7.65,24.12 7.47,24.084 7.362,24.048 Z M25.704,32.652 C24.354,31.986 22.302,31.59 20.142,31.158 C19.386,31.014 18.594,30.852 17.838,30.69 C17.136,30.528 16.452,30.402 15.84,30.294 C14.868,30.114 13.698,29.88 13.32,29.664 C13.446,29.466 13.842,28.998 15.246,28.044 C15.75,27.702 17.28,26.658 16.866,25.326 C16.488,24.084 14.526,23.328 10.53,22.896 C10.17,22.86 9.792,22.824 9.396,22.788 C9.198,22.194 8.91,21.348 8.496,20.124 L7.812,18.126 L7.128,20.124 C6.894,20.79 6.714,21.33 6.552,21.798 C6.372,21.222 6.048,20.286 5.49,18.666 L4.86,16.632 L4.176,18.63 C3.24,21.366 2.97,22.176 2.898,22.482 C2.61,22.482 2.34,22.482 2.07,22.482 C1.782,21.438 1.584,20.34 1.494,19.224 L3.15,19.17 L5.886,14.382 L7.776,14.382 L9.414,19.764 L13.266,18.774 L14.148,19.26 L12.276,21.618 L13.41,22.518 L17.406,17.46 L17.874,17.73 L20.034,18.522 L20.97,18.036 C20.79,18.414 20.682,18.828 20.682,19.26 C20.682,19.692 20.952,20.61 23.004,20.952 C23.652,21.06 24.138,21.618 24.138,22.284 L24.138,24.624 C23.85,24.426 23.526,24.246 23.166,24.12 C23.184,24.12 23.184,24.12 23.184,24.12 C22.392,23.868 21.654,23.49 21.42,22.716 C21.24,23.346 20.736,23.706 20.088,23.958 C18.414,24.408 17.208,25.668 17.208,27.162 C17.208,27.702 17.622,28.98 21.384,28.98 C25.164,28.98 25.56,27.702 25.56,27.162 L25.56,24.336 C25.812,24.426 26.1,24.498 26.442,24.552 C27.09,24.66 27.576,25.218 27.576,25.884 L27.576,27.504 C27.576,27.882 27.846,28.224 28.224,28.26 C28.656,28.296 29.016,27.954 29.016,27.54 L29.016,25.884 C29.016,25.218 29.502,24.66 30.15,24.552 C32.202,24.21 32.472,23.31 32.472,22.86 C32.472,21.654 31.68,20.61 30.51,20.016 C30.528,20.016 30.528,20.016 30.528,20.016 C30.51,20.016 30.492,19.998 30.456,19.998 C30.258,19.89 30.024,19.818 29.808,19.746 C29.484,19.584 29.196,19.368 28.998,19.098 C28.908,17.82 27.954,16.74 26.586,16.218 C26.586,16.218 26.586,16.218 26.586,16.218 C26.586,16.218 26.568,16.218 26.568,16.218 C26.478,16.182 26.388,16.164 26.298,16.128 C25.614,15.876 25.02,15.498 24.822,14.832 C24.606,15.57 23.976,15.948 23.166,16.2 C23.166,16.2 23.166,16.2 23.166,16.2 C23.112,16.218 23.04,16.236 22.986,16.272 L25.236,13.878 L26.586,15.696 L27.666,14.832 L27.936,14.832 L30.276,18.054 L31.932,17.766 L34.362,20.52 C33.57,25.776 30.276,30.24 25.704,32.652 Z M26.478,13.05 L25.398,11.592 L22.05,15.174 C19.692,14.922 17.856,12.924 17.856,10.494 C17.856,7.902 19.962,5.796 22.554,5.796 C25.146,5.796 27.252,7.902 27.252,10.494 C27.252,11.43 26.964,12.312 26.478,13.05 Z M27.576,19.152 C27.324,19.332 26.37,19.62 24.84,19.62 C24.84,19.62 24.84,19.62 24.84,19.62 C24.84,19.62 24.84,19.62 24.84,19.62 C23.31,19.62 22.356,19.332 22.104,19.152 C22.104,19.152 22.104,19.152 22.104,19.152 C22.176,18.144 23.4,17.316 24.84,17.316 C26.28,17.316 27.504,18.144 27.576,19.152 C27.576,19.152 27.576,19.152 27.576,19.152 Z M28.314,20.916 C29.754,20.916 30.978,21.744 31.05,22.752 C31.05,22.752 31.05,22.752 31.05,22.752 C30.798,22.932 29.844,23.22 28.314,23.22 C28.314,23.22 28.314,23.22 28.314,23.22 C28.314,23.22 28.314,23.22 28.314,23.22 C26.784,23.22 25.83,22.932 25.578,22.752 C25.578,22.752 25.578,22.752 25.578,22.752 C25.65,21.744 26.874,20.916 28.314,20.916 Z M24.12,27.054 C23.868,27.234 22.932,27.522 21.384,27.522 C19.836,27.522 18.9,27.234 18.648,27.054 C18.72,26.046 19.944,25.218 21.384,25.218 C22.824,25.218 24.048,26.046 24.12,27.054 Z M32.49,16.182 L30.942,16.452 L28.71,13.356 L27.99,13.356 C28.44,12.492 28.692,11.52 28.692,10.494 C28.692,7.11 25.938,4.356 22.554,4.356 C19.17,4.356 16.398,7.092 16.398,10.476 C16.398,13.284 18.306,15.66 20.88,16.398 L20.79,16.488 L19.908,16.938 L18.468,16.416 L17.046,15.588 L15.048,18.108 L13.446,17.226 L10.368,18.018 L8.82,12.942 L5.04,12.942 L2.286,17.766 L1.44,17.784 C1.548,8.748 8.946,1.44 18,1.44 C27.126,1.44 34.56,8.874 34.56,18 C34.56,18.18 34.56,18.342 34.56,18.522 L32.49,16.182 Z M11.304,12.852 C13.59,12.852 15.48,10.98 15.48,8.676 C15.48,6.372 13.608,4.5 11.304,4.5 C9,4.5 7.128,6.372 7.128,8.676 C7.128,10.98 9,12.852 11.304,12.852 Z M11.304,5.94 C12.798,5.94 14.04,7.164 14.04,8.676 C14.04,10.188 12.816,11.412 11.304,11.412 C9.792,11.412 8.568,10.188 8.568,8.676 C8.568,7.164 9.792,5.94 11.304,5.94 Z" id="Combined-Shape" fill="#0D0D17" fill-rule="nonzero"></path>
        </g>
    </g>
</svg>